<svg width="1510" height="527" viewBox="0 0 1510 527" fill="none" xmlns="http://www.w3.org/2000/svg">
<path d="M-9.44989 522.207C1.35755 521.014 -86.5147 437.688 -83.9447 430.5C-74.2165 403.293 2.62488 491.098 4.71519 462.483C6.45815 438.623 35.1479 352.494 37.1111 328.654C39.6624 297.67 38.5783 265.326 42.8593 234.606C46.6602 207.331 49.8315 182.924 59.2418 156.803C76.6575 108.462 146.567 68.3032 197.056 52.6018C239.701 39.3402 287.802 36.5147 332.715 35.7213C385.728 34.7849 439.304 41.1303 491.224 50.571C558.051 62.7225 621.9 86.0945 689.251 96.0085C728.433 101.776 776.976 101.686 805.223 130.531C823.114 148.801 835.7 169.689 849.34 190.437C857.113 202.259 864.988 214.018 875.495 224.071C890.36 238.294 927.619 237.375 946.486 235.621C998.494 230.786 1050.2 216.586 1099.39 201.353C1147.13 186.567 1195.91 174.363 1243.53 159.342C1280.53 147.671 1319.06 143.606 1358.35 145.508C1382.65 146.683 1407.09 149.262 1431.35 151.092C1453.31 152.748 1477.58 154.649 1495.45 167.338C1517.51 183.006 1513.67 205.152 1495.45 226.99C1431.57 303.513 1667.08 495.047 1567.14 522.207" stroke="#FFCD6B" stroke-width="8" stroke-linecap="round"/>
<circle cx="587.055" cy="79" r="65" fill="#FFCD6B"/>
<circle cx="195.055" cy="65" r="65" fill="#FFCD6B"/>
<circle cx="923.055" cy="247" r="65" fill="#FFCD6B"/>
<circle cx="1356.05" cy="141" r="65" fill="#FFCD6B"/>
<path d="M561.635 111V99.9205L587.523 75.9503C589.725 73.8196 591.571 71.902 593.063 70.1974C594.578 68.4929 595.726 66.8239 596.507 65.1903C597.289 63.5331 597.679 61.7457 597.679 59.8281C597.679 57.6974 597.194 55.8627 596.223 54.3239C595.253 52.7614 593.927 51.5658 592.246 50.7372C590.565 49.8849 588.659 49.4588 586.529 49.4588C584.303 49.4588 582.362 49.9086 580.705 50.8082C579.048 51.7079 577.769 52.9981 576.87 54.679C575.97 56.3598 575.52 58.3603 575.52 60.6804H560.925C560.925 55.9219 562.002 51.7907 564.156 48.2869C566.311 44.7831 569.329 42.0724 573.212 40.1548C577.094 38.2372 581.569 37.2784 586.635 37.2784C591.843 37.2784 596.377 38.2017 600.236 40.0483C604.119 41.8712 607.137 44.4044 609.291 47.6477C611.446 50.8911 612.523 54.608 612.523 58.7983C612.523 61.5445 611.978 64.2552 610.889 66.9304C609.824 69.6056 607.918 72.5767 605.172 75.8438C602.426 79.0871 598.555 82.9815 593.56 87.527L582.942 97.9318V98.429H613.482V111H561.635Z" fill="#474545"/>
<path d="M924.41 286.994C919.107 286.994 914.384 286.083 910.241 284.26C906.121 282.413 902.866 279.88 900.475 276.661C898.108 273.417 896.888 269.677 896.817 265.439H912.3C912.395 267.214 912.975 268.777 914.04 270.126C915.129 271.452 916.574 272.482 918.373 273.216C920.172 273.95 922.196 274.317 924.445 274.317C926.789 274.317 928.861 273.902 930.66 273.074C932.459 272.245 933.868 271.097 934.886 269.629C935.904 268.161 936.413 266.469 936.413 264.551C936.413 262.61 935.868 260.893 934.779 259.402C933.714 257.887 932.175 256.703 930.163 255.851C928.174 254.999 925.807 254.572 923.06 254.572H916.278V243.28H923.06C925.38 243.28 927.428 242.877 929.204 242.072C931.003 241.268 932.4 240.155 933.394 238.734C934.388 237.29 934.886 235.609 934.886 233.692C934.886 231.869 934.448 230.271 933.572 228.898C932.719 227.501 931.512 226.412 929.95 225.631C928.411 224.849 926.612 224.459 924.552 224.459C922.469 224.459 920.563 224.838 918.835 225.595C917.106 226.329 915.721 227.383 914.68 228.756C913.638 230.129 913.082 231.739 913.011 233.585H898.273C898.344 229.395 899.54 225.702 901.86 222.506C904.18 219.31 907.305 216.812 911.235 215.013C915.189 213.19 919.651 212.278 924.623 212.278C929.642 212.278 934.033 213.19 937.798 215.013C941.562 216.836 944.486 219.298 946.569 222.399C948.676 225.477 949.718 228.933 949.694 232.768C949.718 236.84 948.451 240.238 945.894 242.96C943.361 245.683 940.058 247.411 935.987 248.145V248.713C941.337 249.4 945.409 251.258 948.202 254.288C951.02 257.295 952.416 261.059 952.393 265.581C952.416 269.724 951.221 273.405 948.806 276.625C946.415 279.845 943.112 282.378 938.898 284.224C934.684 286.071 929.855 286.994 924.41 286.994Z" fill="#474545"/>
<path d="M1318.43 160.216V148.107L1348.79 100.273H1359.23V117.034H1353.05L1333.91 147.325V147.893H1377.06V160.216H1318.43ZM1353.33 173V156.523L1353.62 151.161V100.273H1368.04V173H1353.33Z" fill="#474545"/>
<path d="M205.763 31.2727V104H190.386V45.8679H189.96L173.305 56.3082V42.6719L191.31 31.2727H205.763Z" fill="#474545"/>
</svg>
