<svg width="125" height="24" viewBox="0 0 125 24" fill="none" xmlns="http://www.w3.org/2000/svg">
<path d="M10.1914 7.91895V11.3358V12.7016V16.1184H13.0703V12.7016V11.3358V7.91895H10.1914Z" fill="#FAB908"/>
<path d="M1.55504 12.6601C2.35023 12.6601 2.99485 12.029 2.99485 11.2505C2.99485 10.4719 2.35023 9.84082 1.55504 9.84082C0.75986 9.84082 0.115234 10.4719 0.115234 11.2505C0.115234 12.029 0.75986 12.6601 1.55504 12.6601Z" fill="#0066D9"/>
<path d="M1.55504 14.1972C2.35023 14.1972 2.99485 13.5661 2.99485 12.7876C2.99485 12.009 2.35023 11.3779 1.55504 11.3779C0.75986 11.3779 0.115234 12.009 0.115234 12.7876C0.115234 13.5661 0.75986 14.1972 1.55504 14.1972Z" fill="#0066D9"/>
<path d="M2.99485 11.25H0.115234V12.7878H2.99485V11.25Z" fill="#0066D9"/>
<path d="M21.7074 14.1972C22.5026 14.1972 23.1472 13.5661 23.1472 12.7876C23.1472 12.009 22.5026 11.3779 21.7074 11.3779C20.9122 11.3779 20.2676 12.009 20.2676 12.7876C20.2676 13.5661 20.9122 14.1972 21.7074 14.1972Z" fill="#4285F4"/>
<path d="M21.7074 12.6601C22.5026 12.6601 23.1472 12.029 23.1472 11.2505C23.1472 10.4719 22.5026 9.84082 21.7074 9.84082C20.9122 9.84082 20.2676 10.4719 20.2676 11.2505C20.2676 12.029 20.9122 12.6601 21.7074 12.6601Z" fill="#4285F4"/>
<path d="M20.2676 12.7878H23.1472V11.25H20.2676V12.7878Z" fill="#4285F4"/>
<path d="M6.52769 17.2724C7.32285 17.2724 7.96749 16.6413 7.96749 15.8628C7.96749 15.0842 7.32285 14.4531 6.52769 14.4531C5.73251 14.4531 5.08789 15.0842 5.08789 15.8628C5.08789 16.6413 5.73251 17.2724 6.52769 17.2724Z" fill="#EA4335"/>
<path d="M6.52769 18.8096C7.32285 18.8096 7.96749 18.1785 7.96749 17.4C7.96749 16.6214 7.32285 15.9902 6.52769 15.9902C5.73251 15.9902 5.08789 16.6214 5.08789 17.4C5.08789 18.1785 5.73251 18.8096 6.52769 18.8096Z" fill="#EA4335"/>
<path d="M7.96749 15.8623H5.08789V17.4001H7.96749V15.8623Z" fill="#EA4335"/>
<path d="M6.52769 8.0478C7.32285 8.0478 7.96749 7.41668 7.96749 6.63817C7.96749 5.85964 7.32285 5.22852 6.52769 5.22852C5.73251 5.22852 5.08789 5.85964 5.08789 6.63817C5.08789 7.41668 5.73251 8.0478 6.52769 8.0478Z" fill="#EA4335"/>
<path d="M6.52769 13.0439C7.32285 13.0439 7.96749 12.4128 7.96749 11.6343C7.96749 10.8557 7.32285 10.2246 6.52769 10.2246C5.73251 10.2246 5.08789 10.8557 5.08789 11.6343C5.08789 12.4128 5.73251 13.0439 6.52769 13.0439Z" fill="#EA4335"/>
<path d="M7.96673 6.6377H5.08789V11.6663H7.96673V6.6377Z" fill="#EA4335"/>
<path d="M16.7347 9.58494C17.5299 9.58494 18.1745 8.95382 18.1745 8.17528C18.1745 7.39675 17.5299 6.76562 16.7347 6.76562C15.9396 6.76562 15.2949 7.39675 15.2949 8.17528C15.2949 8.95382 15.9396 9.58494 16.7347 9.58494Z" fill="#34A853"/>
<path d="M16.7347 8.0478C17.5299 8.0478 18.1745 7.41668 18.1745 6.63817C18.1745 5.85964 17.5299 5.22852 16.7347 5.22852C15.9396 5.22852 15.2949 5.85964 15.2949 6.63817C15.2949 7.41668 15.9396 8.0478 16.7347 8.0478Z" fill="#34A853"/>
<path d="M15.2949 8.17549H18.1746V6.6377H15.2949V8.17549Z" fill="#34A853"/>
<path d="M11.6312 5.10153C12.4264 5.10153 13.0711 4.47041 13.0711 3.69188C13.0711 2.91335 12.4264 2.28223 11.6312 2.28223C10.836 2.28223 10.1914 2.91335 10.1914 3.69188C10.1914 4.47041 10.836 5.10153 11.6312 5.10153Z" fill="#FAB908"/>
<path d="M11.6312 3.56345C12.4264 3.56345 13.0711 2.93232 13.0711 2.15379C13.0711 1.37527 12.4264 0.744141 11.6312 0.744141C10.836 0.744141 10.1914 1.37527 10.1914 2.15379C10.1914 2.93232 10.836 3.56345 11.6312 3.56345Z" fill="#FAB908"/>
<path d="M10.1914 3.69113H13.0711V2.15332H10.1914V3.69113Z" fill="#FAB908"/>
<path d="M11.6312 23.2939C12.4264 23.2939 13.0711 22.6628 13.0711 21.8843C13.0711 21.1057 12.4264 20.4746 11.6312 20.4746C10.836 20.4746 10.1914 21.1057 10.1914 21.8843C10.1914 22.6628 10.836 23.2939 11.6312 23.2939Z" fill="#FAB908"/>
<path d="M11.6312 21.7558C12.4264 21.7558 13.0711 21.1247 13.0711 20.3462C13.0711 19.5676 12.4264 18.9365 11.6312 18.9365C10.836 18.9365 10.1914 19.5676 10.1914 20.3462C10.1914 21.1247 10.836 21.7558 11.6312 21.7558Z" fill="#FAB908"/>
<path d="M10.1914 21.8835H13.0711V20.3457H10.1914V21.8835Z" fill="#FAB908"/>
<path d="M16.7347 18.8096C17.5299 18.8096 18.1745 18.1785 18.1745 17.4C18.1745 16.6214 17.5299 15.9902 16.7347 15.9902C15.9396 15.9902 15.2949 16.6214 15.2949 17.4C15.2949 18.1785 15.9396 18.8096 16.7347 18.8096Z" fill="#34A853"/>
<path d="M16.7347 13.8134C17.5299 13.8134 18.1745 13.1823 18.1745 12.4038C18.1745 11.6253 17.5299 10.9941 16.7347 10.9941C15.9396 10.9941 15.2949 11.6253 15.2949 12.4038C15.2949 13.1823 15.9396 13.8134 16.7347 13.8134Z" fill="#34A853"/>
<path d="M15.2949 17.3999H18.1738V12.4033H15.2949V17.3999Z" fill="#34A853"/>
<path d="M11.6312 9.3291C12.4264 9.3291 13.0711 8.69792 13.0711 7.91945C13.0711 7.14092 12.4264 6.50977 11.6312 6.50977C10.836 6.50977 10.1914 7.14092 10.1914 7.91945C10.1914 8.69792 10.836 9.3291 11.6312 9.3291Z" fill="#FAB908"/>
<path d="M11.6312 17.5283C12.4264 17.5283 13.0711 16.8972 13.0711 16.1186C13.0711 15.3401 12.4264 14.709 11.6312 14.709C10.836 14.709 10.1914 15.3401 10.1914 16.1186C10.1914 16.8972 10.836 17.5283 11.6312 17.5283Z" fill="#FAB908"/>
<path fill-rule="evenodd" clip-rule="evenodd" d="M76.1516 15.5553H74.9531V6.42285H78.132C78.9222 6.42285 79.6061 6.68007 80.1836 7.19448C80.7611 7.70894 81.0499 8.35729 81.0499 9.1396C81.0499 9.92191 80.7611 10.5703 80.1836 11.0847C79.6061 11.5992 78.9222 11.8564 78.132 11.8564H76.1516V15.5553ZM76.1516 10.734H78.1578C78.6618 10.734 79.0657 10.5681 79.3695 10.2365C79.6734 9.90488 79.8256 9.53923 79.8256 9.1396C79.8256 8.73996 79.6734 8.37431 79.3695 8.04271C79.0657 7.71105 78.6618 7.54528 78.1578 7.54528H76.1516V10.734ZM82.0439 10.058C82.6604 9.42019 83.4462 9.10132 84.4018 9.10132C85.3574 9.10132 86.1432 9.41808 86.7597 10.0516C87.3763 10.6851 87.6845 11.4779 87.6845 12.4303C87.6845 13.3827 87.3763 14.1756 86.7597 14.8091C86.1432 15.4426 85.3574 15.7593 84.4018 15.7593C83.4462 15.7593 82.6604 15.4426 82.0439 14.8091C81.4274 14.1756 81.1191 13.3827 81.1191 12.4303C81.1191 11.4779 81.4274 10.6872 82.0439 10.058ZM82.9297 14.0757C83.3468 14.4838 83.8375 14.688 84.4018 14.688C84.9661 14.688 85.455 14.4817 85.8677 14.0693C86.2797 13.6569 86.4861 13.1106 86.4861 12.4303C86.4861 11.7501 86.2797 11.2038 85.8677 10.7913C85.455 10.379 84.9661 10.1727 84.4018 10.1727C83.8375 10.1727 83.3487 10.379 82.936 10.7913C82.5239 11.2038 82.3176 11.7501 82.3176 12.4303C82.3176 13.1106 82.5214 13.659 82.9297 14.0757ZM91.2969 15.7593C90.4722 15.7593 89.76 15.4404 89.1605 14.8027C88.5615 14.165 88.2615 13.3742 88.2615 12.4303C88.2615 11.4865 88.5615 10.6957 89.1605 10.058C89.76 9.42019 90.4722 9.10132 91.2969 9.10132C91.7832 9.10132 92.2198 9.20341 92.6061 9.40745C92.993 9.61156 93.2818 9.86661 93.4724 10.1727H93.5246L93.4724 9.30543V6.42285H94.6715V15.5553H93.5246V14.688H93.4724C93.2818 14.994 92.993 15.2491 92.6061 15.4532C92.2198 15.6573 91.7832 15.7593 91.2969 15.7593ZM91.4926 14.688C92.0569 14.688 92.5369 14.4838 92.932 14.0757C93.3271 13.6676 93.5246 13.1191 93.5246 12.4303C93.5246 11.7416 93.3271 11.1931 92.932 10.785C92.5369 10.3768 92.0569 10.1727 91.4926 10.1727C90.9365 10.1727 90.459 10.379 90.0595 10.7913C89.66 11.2038 89.4599 11.7501 89.4599 12.4303C89.4599 13.1106 89.66 13.6569 90.0595 14.0693C90.459 14.4817 90.9365 14.688 91.4926 14.688ZM98.8306 15.7593C97.8756 15.7593 97.0892 15.4426 96.4727 14.8091C95.8561 14.1756 95.5479 13.3827 95.5479 12.4303C95.5479 11.4779 95.8561 10.6851 96.4727 10.0516C97.0892 9.41808 97.8756 9.10132 98.8306 9.10132C99.5428 9.10132 100.133 9.27138 100.602 9.61156C101.072 9.95167 101.414 10.3811 101.631 10.8997L100.537 11.3462C100.207 10.5639 99.6126 10.1727 98.7526 10.1727C98.2229 10.1727 97.7561 10.3854 97.3522 10.8105C96.9483 11.2356 96.7463 11.7756 96.7463 12.4303C96.7463 13.0851 96.9483 13.6251 97.3522 14.0502C97.7561 14.4753 98.2229 14.688 98.7526 14.688C99.6472 14.688 100.264 14.2968 100.602 13.5145L101.67 13.9609C101.453 14.4711 101.104 14.8984 100.622 15.2427C100.14 15.5871 99.5428 15.7593 98.8306 15.7593ZM104.514 15.7593C103.837 15.7593 103.27 15.568 102.814 15.1854C102.358 14.8027 102.13 14.2968 102.13 13.6676C102.13 12.9873 102.4 12.4537 102.938 12.0668C103.477 11.6799 104.141 11.4865 104.931 11.4865C105.634 11.4865 106.212 11.614 106.664 11.8691V11.6906C106.664 11.2314 106.503 10.8636 106.182 10.5873C105.86 10.3109 105.465 10.1727 104.997 10.1727C104.649 10.1727 104.334 10.2535 104.052 10.4151C103.77 10.5767 103.577 10.7977 103.472 11.0783L102.378 10.6192C102.525 10.245 102.817 9.89854 103.251 9.57968C103.685 9.26076 104.258 9.10132 104.97 9.10132C105.787 9.10132 106.464 9.33519 107.003 9.80286C107.541 10.2705 107.811 10.9295 107.811 11.7798V15.5553H106.664V14.688H106.612C106.134 15.4022 105.435 15.7593 104.514 15.7593ZM104.71 14.688C105.205 14.688 105.654 14.5072 106.058 14.1458C106.462 13.7845 106.664 13.3572 106.664 12.864C106.325 12.5919 105.817 12.4558 105.139 12.4558C104.557 12.4558 104.119 12.5791 103.824 12.8257C103.529 13.0723 103.381 13.3614 103.381 13.693C103.381 13.9992 103.516 14.2415 103.785 14.4201C104.054 14.5987 104.362 14.688 104.71 14.688ZM111.319 15.7593C110.606 15.7593 110.018 15.5892 109.553 15.2491C109.088 14.909 108.747 14.4838 108.53 13.9737L109.599 13.54C109.938 14.3223 110.515 14.7134 111.331 14.7134C111.705 14.7134 112.011 14.6327 112.25 14.4711C112.489 14.3096 112.608 14.0969 112.608 13.8334C112.608 13.4252 112.317 13.1489 111.735 13.0043L110.445 12.6982C110.037 12.5961 109.651 12.4027 109.286 12.1178C108.922 11.833 108.739 11.4482 108.739 10.9636C108.739 10.4108 108.988 9.96229 109.488 9.61789C109.987 9.27356 110.58 9.10132 111.266 9.10132C111.831 9.10132 112.335 9.22677 112.777 9.4776C113.22 9.72849 113.537 10.0877 113.729 10.5554L112.686 10.9763C112.452 10.4236 111.965 10.1473 111.227 10.1473C110.871 10.1473 110.571 10.2195 110.328 10.364C110.085 10.5086 109.963 10.7042 109.963 10.9508C109.963 11.3079 110.246 11.5503 110.81 11.6778L112.074 11.9712C112.673 12.1072 113.116 12.341 113.403 12.6727C113.69 13.0043 113.833 13.3784 113.833 13.7951C113.833 14.3563 113.598 14.824 113.129 15.1981C112.66 15.5723 112.057 15.7593 111.319 15.7593ZM117.419 15.6573C116.75 15.6573 116.24 15.483 115.888 15.1344C115.536 14.7857 115.361 14.2925 115.361 13.6548V10.3768H114.24V9.30543H115.361V7.39219H116.559V9.30543H118.122V10.3768H116.559V13.5655C116.559 14.2458 116.846 14.5859 117.419 14.5859C117.636 14.5859 117.819 14.5519 117.966 14.4838L118.383 15.4914C118.122 15.602 117.801 15.6573 117.419 15.6573ZM121.617 15.7593C120.905 15.7593 120.317 15.5892 119.853 15.2491C119.388 14.909 119.047 14.4838 118.83 13.9737L119.898 13.54C120.236 14.3223 120.814 14.7134 121.63 14.7134C122.004 14.7134 122.31 14.6327 122.549 14.4711C122.788 14.3096 122.907 14.0969 122.907 13.8334C122.907 13.4252 122.616 13.1489 122.034 13.0043L120.745 12.6982C120.336 12.5961 119.95 12.4027 119.585 12.1178C119.22 11.833 119.038 11.4482 119.038 10.9636C119.038 10.4108 119.288 9.96229 119.787 9.61789C120.287 9.27356 120.879 9.10132 121.566 9.10132C122.13 9.10132 122.634 9.22677 123.077 9.4776C123.52 9.72849 123.837 10.0877 124.027 10.5554L122.986 10.9763C122.751 10.4236 122.265 10.1473 121.526 10.1473C121.17 10.1473 120.87 10.2195 120.628 10.364C120.384 10.5086 120.263 10.7042 120.263 10.9508C120.263 11.3079 120.545 11.5503 121.109 11.6778L122.373 11.9712C122.972 12.1072 123.415 12.341 123.702 12.6727C123.988 13.0043 124.132 13.3784 124.132 13.7951C124.132 14.3563 123.897 14.824 123.428 15.1981C122.959 15.5723 122.356 15.7593 121.617 15.7593Z" fill="#14142B"/>
<path d="M29.4375 10.5234C29.4375 7.6337 31.9107 5.29199 34.8622 5.29199C36.4907 5.29199 37.651 5.91976 38.5263 6.73687L37.4881 7.7433C36.8673 7.16534 36.0225 6.71694 34.8622 6.71694C32.7148 6.71694 31.0355 8.41091 31.0355 10.5135C31.0355 12.616 32.7148 14.31 34.8622 14.31C36.2566 14.31 37.0505 13.7619 37.5594 13.2637C37.9767 12.8552 38.2515 12.2673 38.3532 11.4701H34.8622V10.0451H39.7781C39.829 10.3042 39.8596 10.6031 39.8596 10.9419C39.8596 12.0181 39.5644 13.3434 38.5975 14.2801C37.651 15.2367 36.45 15.7449 34.8622 15.7449C31.9107 15.7449 29.4375 13.4032 29.4375 10.5234ZM43.7779 9.07858C45.6812 9.07858 47.2282 10.4935 47.2282 12.4466C47.2282 14.3897 45.6812 15.8147 43.7779 15.8147C41.8747 15.8147 40.3277 14.3897 40.3277 12.4466C40.3277 10.4935 41.8747 9.07858 43.7779 9.07858ZM43.7779 14.4794C44.8161 14.4794 45.7219 13.6424 45.7219 12.4366C45.7219 11.221 44.8161 10.3939 43.7779 10.3939C42.7297 10.3939 41.834 11.221 41.834 12.4366C41.834 13.6424 42.7398 14.4794 43.7779 14.4794ZM51.3095 9.07858C53.2127 9.07858 54.7598 10.4935 54.7598 12.4466C54.7598 14.3897 53.2127 15.8147 51.3095 15.8147C49.4063 15.8147 47.8593 14.3897 47.8593 12.4466C47.8593 10.4935 49.4063 9.07858 51.3095 9.07858ZM51.3095 14.4794C52.3476 14.4794 53.2534 13.6424 53.2534 12.4366C53.2534 11.221 52.3578 10.3939 51.3095 10.3939C50.2612 10.3939 49.3656 11.221 49.3656 12.4366C49.3656 13.6424 50.2714 14.4794 51.3095 14.4794ZM60.5509 9.18818H61.9962V15.2367C61.9962 17.7279 60.5 18.7443 58.7291 18.7443C57.06 18.7443 56.0523 17.6482 55.6758 16.7514L56.9887 16.2132C57.2228 16.7613 57.7928 17.409 58.7189 17.409C59.8487 17.409 60.5509 16.7215 60.5509 15.436V14.9477H60.5C60.1642 15.3563 59.5128 15.715 58.6884 15.715C56.9684 15.715 55.3908 14.2402 55.3908 12.3569C55.3908 10.4537 56.9684 8.97892 58.6884 8.97892C59.5128 8.97892 60.1642 9.33761 60.5 9.73625H60.5509V9.18818ZM58.8207 14.3897C59.8487 14.3897 60.6629 13.5427 60.6527 12.3569C60.6527 11.1711 59.8487 10.3042 58.8207 10.3042C57.7826 10.3042 56.9073 11.1711 56.9073 12.3569C56.9073 13.5328 57.7826 14.3897 58.8207 14.3897ZM63.0242 15.5854V5.69058H64.5303V15.5854H63.0242ZM68.673 14.4794C69.4462 14.4794 69.9753 14.1107 70.3723 13.5527L71.543 14.3199C71.1561 14.868 70.2502 15.8147 68.673 15.8147C66.7184 15.8147 65.2632 14.3299 65.2632 12.4466C65.2632 10.4437 66.7391 9.07858 68.5101 9.07858C70.2911 9.07858 71.1662 10.4636 71.4512 11.221L71.6041 11.5996L67.0033 13.463C67.36 14.1306 67.8992 14.4794 68.673 14.4794ZM68.561 10.374C67.7872 10.374 66.7184 11.0416 66.7592 12.337L69.8331 11.0914C69.6702 10.663 69.1612 10.374 68.561 10.374Z" fill="#14142B"/>
</svg>
