<svg width="26" height="22" viewBox="0 0 26 22" fill="none" xmlns="http://www.w3.org/2000/svg">
<path d="M8.49125 10.2715C9.49288 10.7122 10.2742 11.3733 10.8351 12.2548C11.396 13.1362 11.6764 14.1779 11.6764 15.3799C11.6764 17.1027 11.1356 18.5049 10.0538 19.5867C8.97203 20.6284 7.58978 21.1492 5.90704 21.1492C4.2243 21.1492 2.82202 20.6084 1.70019 19.5266C0.618429 18.4448 0.0775485 17.0626 0.0775485 15.3799C0.0775485 14.5785 0.177712 13.7772 0.378038 12.9759C0.578364 12.1746 1.01908 10.9727 1.70019 9.37006L5.18587 0.715969H11.1356L8.49125 10.2715ZM22.6744 10.2715C23.676 10.7122 24.4573 11.3733 25.0182 12.2548C25.5791 13.1362 25.8595 14.1779 25.8595 15.3799C25.8595 17.1027 25.3187 18.5049 24.2369 19.5867C23.1551 20.6284 21.7729 21.1492 20.0901 21.1492C18.4074 21.1492 17.0051 20.6084 15.8833 19.5266C14.8015 18.4448 14.2606 17.0626 14.2606 15.3799C14.2606 14.5785 14.3608 13.7772 14.5611 12.9759C14.7615 12.1746 15.2022 10.9727 15.8833 9.37006L19.369 0.715969H25.3187L22.6744 10.2715Z" fill="#FFB21A"/>
</svg>
