<svg width="54" height="53" viewBox="0 0 54 53" fill="none" xmlns="http://www.w3.org/2000/svg">
<g clip-path="url(#clip0_200_372)">
<path d="M12.1549 46.1366C2.65933 40.6078 0.282977 26.6013 8.52625 14.2743C21.187 -4.64123 34.9028 3.39684 40.9669 5.37636C49.7131 8.22567 52.3359 15.584 53.2135 22.5723C54.87 35.7291 49.3285 49.2159 36.9734 51.9952C23.376 55.0545 19.5699 50.4455 12.1549 46.1366Z" fill="#F2EBE4"/>
<path d="M14.3834 37.0223C14.036 37.0231 13.6938 36.9382 13.387 36.7752L12.046 36.0619C11.5536 35.7987 11.184 35.3531 11.0164 34.8207C10.8488 34.2882 10.8965 33.7112 11.1493 33.2135L12.1097 31.3694C12.1766 31.2423 12.291 31.1467 12.4279 31.1034C12.5649 31.0602 12.7134 31.0727 12.8412 31.1384C12.969 31.204 13.0656 31.3175 13.1102 31.454C13.1548 31.5906 13.1436 31.7392 13.0792 31.8676L12.1277 33.7147C12.0042 33.9569 11.9807 34.238 12.0621 34.4974C12.1435 34.7569 12.3233 34.9741 12.5631 35.1025L13.9031 35.8158C14.1437 35.9417 14.4237 35.969 14.6841 35.892C14.9444 35.815 15.1646 35.6398 15.298 35.4033L16.2704 33.6529C16.3052 33.5903 16.352 33.5353 16.4081 33.4908C16.4642 33.4464 16.5285 33.4134 16.5973 33.3938C16.6661 33.3742 16.7381 33.3683 16.8092 33.3765C16.8803 33.3847 16.9491 33.4069 17.0117 33.4417C17.0742 33.4765 17.1293 33.5233 17.1737 33.5793C17.2182 33.6354 17.2512 33.6997 17.2708 33.7685C17.2904 33.8374 17.2963 33.9094 17.2881 33.9805C17.2798 34.0516 17.2577 34.1204 17.2229 34.1829L16.2505 35.9333C16.0647 36.2661 15.7934 36.5431 15.4646 36.7358C15.1358 36.9285 14.7615 37.0298 14.3804 37.0292L14.3834 37.0223Z" fill="black"/>
<path d="M41.4874 37.0019C41.107 37.0023 40.7335 36.9009 40.4055 36.7082C40.0775 36.5155 39.8071 36.2385 39.6223 35.906L38.6629 34.1775C38.5975 34.0516 38.5838 33.9051 38.6247 33.7693C38.6656 33.6334 38.7578 33.5188 38.8819 33.4499C39.0059 33.381 39.152 33.3632 39.2889 33.4003C39.4259 33.4374 39.543 33.5264 39.6154 33.6485L40.5748 35.377C40.7093 35.6175 40.9334 35.795 41.1983 35.8707C41.4632 35.9465 41.7473 35.9144 41.9886 35.7815L43.3735 35.0144C43.4927 34.9488 43.5978 34.8602 43.6828 34.7539C43.7677 34.6475 43.8308 34.5254 43.8683 34.3946C43.9059 34.2638 43.9173 34.1268 43.9018 33.9916C43.8863 33.8564 43.8442 33.7256 43.778 33.6067L42.8185 31.8781C42.7531 31.7522 42.7394 31.6057 42.7803 31.4699C42.8212 31.334 42.9135 31.2195 43.0376 31.1506C43.1616 31.0817 43.3076 31.0639 43.4446 31.1009C43.5816 31.138 43.6987 31.227 43.771 31.3491L44.7355 33.0786C44.871 33.3227 44.9571 33.5912 44.9888 33.8686C45.0204 34.1461 44.997 34.427 44.9199 34.6954C44.8428 34.9638 44.7135 35.2143 44.5395 35.4326C44.3654 35.651 44.15 35.8328 43.9055 35.9678L42.5206 36.7339C42.2063 36.9092 41.8523 37.0012 41.4924 37.0009L41.4874 37.0019Z" fill="black"/>
<path d="M34.3403 10.5932C34.2059 10.5911 34.077 10.5393 33.9786 10.4477L33.7405 10.2315C31.8751 8.54704 30.1083 6.75643 28.449 4.86863C27.0156 6.54545 25.0466 7.67525 22.8755 8.06666L21.6799 8.28285C21.5378 8.30927 21.3909 8.27814 21.2717 8.1963C21.1525 8.11447 21.0707 7.98863 21.0443 7.84648C21.0179 7.70433 21.049 7.5575 21.1308 7.4383C21.2127 7.31909 21.3385 7.23728 21.4807 7.21086L22.6763 6.99367C24.803 6.61061 26.7032 5.42999 27.9887 3.69303C28.0374 3.62735 28.1003 3.57347 28.1726 3.53539C28.245 3.4973 28.325 3.47599 28.4067 3.47302C28.4884 3.47005 28.5698 3.48551 28.6447 3.51825C28.7196 3.55099 28.7862 3.60017 28.8396 3.66215C30.5929 5.70007 32.4723 7.62599 34.4668 9.42855L34.7059 9.64475C34.7873 9.71866 34.8445 9.81548 34.8699 9.92248C34.8953 10.0294 34.8877 10.1416 34.8481 10.2442C34.8086 10.3468 34.7389 10.4351 34.6482 10.4973C34.5576 10.5596 34.4502 10.593 34.3403 10.5932Z" fill="black"/>
<path d="M27.9329 14.0203C25.4003 14.0203 23.3399 11.707 23.3399 8.86366C23.3385 8.21922 23.4463 7.5792 23.6587 6.97075C23.7091 6.83786 23.8095 6.72993 23.9384 6.66998C24.0673 6.61003 24.2145 6.60282 24.3486 6.64986C24.4828 6.69691 24.5932 6.79451 24.6564 6.92183C24.7196 7.04915 24.7306 7.19612 24.6869 7.3314C24.5157 7.82271 24.4288 8.33941 24.4299 8.85968C24.4299 11.1022 26.0011 12.9264 27.9329 12.9264C29.8648 12.9264 31.437 11.1062 31.437 8.86366C31.4371 8.51134 31.3977 8.16012 31.3195 7.81658C31.2871 7.67549 31.3121 7.52731 31.389 7.40465C31.4659 7.282 31.5883 7.1949 31.7295 7.16253C31.8706 7.13017 32.0187 7.15518 32.1414 7.23206C32.2641 7.30894 32.3512 7.4314 32.3835 7.5725C32.4808 7.99734 32.5296 8.43183 32.529 8.86765C32.529 11.711 30.4676 14.0243 27.9349 14.0243L27.9329 14.0203Z" fill="black"/>
<path d="M16.7515 34.4578C16.6594 34.4577 16.5688 34.4341 16.4885 34.389L12.3328 32.0896C12.2698 32.055 12.2143 32.0083 12.1695 31.9521C12.1247 31.8959 12.0915 31.8314 12.0717 31.7623C12.052 31.6932 12.0461 31.6208 12.0545 31.5495C12.0629 31.4781 12.0854 31.4091 12.1206 31.3464L19.593 18.0253C19.9854 17.3281 20.5562 16.7478 21.247 16.3441C21.9377 15.9403 22.7235 15.7277 23.5235 15.7279H25.018V12.6036C25.018 12.4591 25.0755 12.3205 25.1777 12.2183C25.2799 12.1161 25.4185 12.0586 25.563 12.0586C25.7076 12.0586 25.8462 12.1161 25.9484 12.2183C26.0506 12.3205 26.108 12.4591 26.108 12.6036V16.2729C26.108 16.4174 26.0506 16.556 25.9484 16.6582C25.8462 16.7604 25.7076 16.8178 25.563 16.8178H23.5235C22.917 16.8179 22.3215 16.9793 21.798 17.2855C21.2745 17.5917 20.8419 18.0317 20.5445 18.5603L13.3401 31.4042L16.5423 33.1746L21.759 23.7608C21.8177 23.6554 21.9097 23.5724 22.0205 23.5249C22.1314 23.4774 22.2549 23.468 22.3717 23.4982C22.4885 23.5284 22.592 23.5964 22.6659 23.6918C22.7399 23.7871 22.7801 23.9042 22.7803 24.0248V30.3013H33.1022L33.1162 23.985C33.1166 23.8644 33.157 23.7474 33.231 23.6523C33.305 23.5572 33.4085 23.4892 33.5252 23.4592C33.642 23.4291 33.7654 23.4386 33.8762 23.4861C33.9869 23.5337 34.0788 23.6166 34.1374 23.722L39.3582 33.1766L42.5574 31.4062L35.3499 18.5613C35.0517 18.0336 34.6187 17.5947 34.095 17.2894C33.5714 16.9841 32.9761 16.8234 32.3699 16.8238H30.2916C30.22 16.8238 30.1492 16.8097 30.083 16.7823C30.0169 16.7549 29.9568 16.7148 29.9062 16.6642C29.8556 16.6136 29.8155 16.5535 29.7881 16.4874C29.7607 16.4213 29.7466 16.3504 29.7466 16.2788V12.6096C29.7466 12.4651 29.804 12.3264 29.9062 12.2242C30.0084 12.122 30.1471 12.0646 30.2916 12.0646C30.4361 12.0646 30.5748 12.122 30.677 12.2242C30.7792 12.3264 30.8366 12.4651 30.8366 12.6096V15.7279H32.366C33.1661 15.728 33.9517 15.9411 34.6423 16.3452C35.3329 16.7493 35.9035 17.3298 36.2955 18.0273L43.7679 31.3484C43.8031 31.4111 43.8256 31.4801 43.834 31.5514C43.8424 31.6228 43.8365 31.6952 43.8168 31.7643C43.797 31.8334 43.7638 31.8979 43.719 31.9541C43.6742 32.0103 43.6187 32.057 43.5557 32.0916L39.4 34.392C39.2736 34.4612 39.1249 34.4777 38.9864 34.4377C38.848 34.3978 38.7309 34.3047 38.6607 34.1788L34.1972 26.0891L34.1872 30.8443C34.187 30.9887 34.1294 31.127 34.0273 31.229C33.9251 31.331 33.7866 31.3883 33.6422 31.3883H22.2323C22.1607 31.3883 22.0899 31.3742 22.0237 31.3468C21.9576 31.3194 21.8975 31.2792 21.8469 31.2286C21.7963 31.178 21.7562 31.118 21.7288 31.0518C21.7014 30.9857 21.6873 30.9149 21.6873 30.8433V26.1329L17.2287 34.1798C17.1818 34.265 17.1128 34.336 17.0291 34.3854C16.9453 34.4349 16.8498 34.4609 16.7525 34.4608L16.7515 34.4578Z" fill="black"/>
<path d="M31.0353 14.8639H30.294C30.1495 14.8639 30.0109 14.8064 29.9087 14.7042C29.8065 14.602 29.749 14.4634 29.749 14.3189C29.749 14.1744 29.8065 14.0357 29.9087 13.9335C30.0109 13.8314 30.1495 13.7739 30.294 13.7739H31.0353C31.7658 13.7737 32.4663 13.4837 32.9833 12.9677C33.5003 12.4517 33.7915 11.7517 33.7931 11.0212V6.48623C33.7909 5.39812 33.4117 4.34441 32.7199 3.50447C32.0282 2.66453 31.0667 2.09028 29.9991 1.87948C29.9375 1.86706 29.8786 1.84414 29.8248 1.81173C29.0541 1.34934 28.1745 1.09961 27.2758 1.08804C26.3771 1.07646 25.4915 1.30344 24.7091 1.74584C23.9268 2.18823 23.2758 2.8302 22.8226 3.60626C22.3693 4.38233 22.13 5.26472 22.1291 6.16344V11.0252C22.1307 11.7555 22.4218 12.4553 22.9386 12.9713C23.4553 13.4873 24.1557 13.7774 24.886 13.7779H25.5625C25.707 13.7779 25.8456 13.8353 25.9478 13.9375C26.05 14.0397 26.1075 14.1783 26.1075 14.3229C26.1075 14.4674 26.05 14.606 25.9478 14.7082C25.8456 14.8104 25.707 14.8678 25.5625 14.8678H24.886C23.8667 14.867 22.8893 14.4621 22.1681 13.7417C21.447 13.0214 21.041 12.0445 21.0391 11.0252V6.16344C21.0401 5.07986 21.3265 4.01565 21.8694 3.07791C22.4124 2.14017 23.1928 1.36198 24.1321 0.821663C25.0714 0.281342 26.1365 -0.00204883 27.2201 1.11509e-05C28.3038 0.00207113 29.3677 0.289509 30.305 0.833397C31.6 1.11138 32.7609 1.82416 33.5946 2.85326C34.4284 3.88236 34.8848 5.16578 34.8881 6.49021V11.0242C34.886 12.0438 34.4796 13.021 33.7582 13.7415C33.0367 14.462 32.0589 14.867 31.0393 14.8678L31.0353 14.8639Z" fill="black"/>
<path d="M27.9606 22.0895C26.7261 22.089 25.5422 21.5988 24.6686 20.7266C23.7951 19.8544 23.3031 18.6713 23.3008 17.4369V16.3809C23.3008 16.2363 23.3582 16.0977 23.4604 15.9955C23.5626 15.8933 23.7012 15.8359 23.8457 15.8359C23.9903 15.8359 24.1289 15.8933 24.2311 15.9955C24.3333 16.0977 24.3907 16.2363 24.3907 16.3809V17.4369C24.3907 18.3836 24.7668 19.2916 25.4363 19.961C26.1058 20.6305 27.0138 21.0065 27.9606 21.0065C28.9074 21.0065 29.8154 20.6305 30.4848 19.961C31.1543 19.2916 31.5304 18.3836 31.5304 17.4369V16.3809C31.5304 16.2363 31.5878 16.0977 31.69 15.9955C31.7923 15.8933 31.9309 15.8359 32.0754 15.8359C32.22 15.8359 32.3586 15.8933 32.4608 15.9955C32.563 16.0977 32.6204 16.2363 32.6204 16.3809V17.4369C32.618 18.6713 32.1261 19.8544 31.2525 20.7266C30.379 21.5988 29.1951 22.089 27.9606 22.0895Z" fill="black"/>
<path d="M27.1954 35.0027H27.1546L16.2279 34.1918C16.0882 34.1755 15.9601 34.1058 15.8706 33.9973C15.7811 33.8888 15.737 33.7499 15.7476 33.6096C15.7581 33.4693 15.8225 33.3386 15.9272 33.2447C16.032 33.1508 16.169 33.101 16.3096 33.1058L27.2363 33.9168C27.3759 33.9287 27.5055 33.9939 27.5983 34.0988C27.6911 34.2037 27.7399 34.3403 27.7347 34.4802C27.7294 34.6202 27.6705 34.7528 27.5701 34.8504C27.4697 34.9481 27.3355 35.0033 27.1954 35.0047V35.0027Z" fill="black"/>
<path d="M21.3239 40.0962C21.1839 40.0945 21.0499 40.0391 20.9497 39.9414C20.8494 39.8436 20.7907 39.7111 20.7855 39.5712C20.7804 39.4313 20.8293 39.2948 20.9221 39.19C21.0149 39.0852 21.1445 39.0201 21.284 39.0082L27.1624 38.5719C27.3065 38.561 27.449 38.6079 27.5586 38.7022C27.6682 38.7964 27.7359 38.9303 27.7467 39.0745C27.7575 39.2186 27.7107 39.3612 27.6164 39.4707C27.5221 39.5803 27.3882 39.648 27.2441 39.6588L21.3657 40.0942H21.3249L21.3239 40.0962Z" fill="black"/>
<path d="M12.1552 38.5427C12.0467 38.5425 11.9407 38.51 11.8507 38.4493C11.7607 38.3886 11.6909 38.3025 11.6501 38.2019C11.4626 37.7391 11.3692 37.2436 11.3753 36.7443C11.3815 36.245 11.4871 35.7519 11.6859 35.2938C11.711 35.2234 11.7503 35.1588 11.8014 35.1042C11.8525 35.0496 11.9143 35.0061 11.9829 34.9764C12.0516 34.9467 12.1256 34.9315 12.2003 34.9316C12.2751 34.9317 12.3491 34.9472 12.4176 34.9772C12.4861 35.0071 12.5478 35.0509 12.5987 35.1057C12.6496 35.1604 12.6886 35.2251 12.7135 35.2957C12.7383 35.3662 12.7483 35.4411 12.743 35.5157C12.7376 35.5903 12.7169 35.6629 12.6823 35.7292C12.5413 36.0542 12.4665 36.4041 12.4623 36.7583C12.458 37.1126 12.5243 37.4641 12.6574 37.7925C12.7116 37.9263 12.7107 38.0762 12.6546 38.2094C12.5986 38.3425 12.4921 38.448 12.3585 38.5028C12.2932 38.529 12.2235 38.5426 12.1532 38.5427H12.1552Z" fill="black"/>
<path d="M40.7922 40.5462C40.7254 40.5462 40.6587 40.5462 40.5929 40.5412L27.1604 39.6256C27.0225 39.6163 26.8933 39.5549 26.799 39.4539C26.7047 39.3529 26.6522 39.2199 26.6523 39.0817V34.4899C26.6522 34.3517 26.7047 34.2186 26.799 34.1176C26.8933 34.0166 27.0225 33.9552 27.1604 33.9459L39.5976 33.0981C39.7394 33.0923 39.8778 33.142 39.9835 33.2367C40.0892 33.3314 40.1538 33.4636 40.1635 33.6052C40.1732 33.7468 40.1273 33.8865 40.0356 33.9948C39.9439 34.1031 39.8135 34.1713 39.6723 34.185L27.7433 34.998V38.5726L40.6597 39.4523C41.0942 39.4742 41.5275 39.3895 41.9218 39.2058C42.3162 39.022 42.6596 38.7447 42.9224 38.398C43.1851 38.0512 43.3591 37.6455 43.4292 37.2161C43.4994 36.7868 43.4635 36.3468 43.3248 35.9344C43.2587 35.8872 43.2042 35.8255 43.1654 35.7541C43.1308 35.6914 43.1089 35.6225 43.101 35.5513C43.093 35.4801 43.0993 35.4081 43.1193 35.3393C43.1393 35.2705 43.1726 35.2064 43.2175 35.1505C43.2623 35.0947 43.3178 35.0483 43.3806 35.0139L43.3996 35.0019L43.4275 34.984C43.493 34.9428 43.5667 34.916 43.6435 34.9056C43.7202 34.8951 43.7983 34.9012 43.8726 34.9233C43.9468 34.9455 44.0155 34.9833 44.0739 35.0341C44.1324 35.0849 44.1793 35.1477 44.2116 35.2181C44.4736 35.791 44.5876 36.4205 44.5431 37.0489C44.4987 37.6773 44.2971 38.2845 43.957 38.8147C43.6169 39.345 43.1491 39.7814 42.5965 40.0839C42.0439 40.3864 41.4242 40.5454 40.7942 40.5462H40.7922Z" fill="black"/>
<path d="M21.6113 34.5878C21.5778 34.5876 21.5445 34.5843 21.5116 34.5778C21.3697 34.5503 21.2446 34.4676 21.1637 34.3479C21.0828 34.2281 21.0528 34.0811 21.0802 33.9392L21.6999 30.7382C21.724 30.614 21.7906 30.502 21.8882 30.4214C21.9858 30.3409 22.1084 30.2969 22.235 30.2969H33.6021C33.7286 30.2969 33.8512 30.3409 33.9489 30.4214C34.0465 30.502 34.113 30.614 34.1371 30.7382L34.7498 33.9073C34.7634 33.9778 34.763 34.0502 34.7487 34.1205C34.7343 34.1908 34.7062 34.2576 34.666 34.317C34.6258 34.3765 34.5743 34.4274 34.5144 34.467C34.4545 34.5065 34.3874 34.5338 34.3169 34.5474C34.2465 34.561 34.174 34.5606 34.1037 34.5463C34.0334 34.5319 33.9666 34.5038 33.9072 34.4636C33.8478 34.4234 33.7968 34.3719 33.7573 34.312C33.7178 34.2521 33.6904 34.185 33.6768 34.1146L33.1487 31.3868H22.6793L22.1453 34.1454C22.1217 34.2698 22.0554 34.382 21.9579 34.4627C21.8604 34.5435 21.7378 34.5877 21.6113 34.5878Z" fill="black"/>
<path d="M50.9534 47.4653H25.6388C25.4943 47.4653 25.3556 47.4079 25.2534 47.3057C25.1512 47.2035 25.0938 47.0649 25.0938 46.9204C25.0938 46.7759 25.1512 46.6372 25.2534 46.535C25.3556 46.4328 25.4943 46.3754 25.6388 46.3754H50.1693L47.3009 38.6583H43.7141C43.5695 38.6583 43.431 38.6009 43.3288 38.4987C43.2266 38.3965 43.1692 38.2579 43.1692 38.1134C43.1692 37.9688 43.2266 37.8302 43.3288 37.728C43.431 37.6258 43.5695 37.5684 43.7141 37.5684H47.6776C47.7889 37.5684 47.8974 37.6025 47.9888 37.6661C48.0802 37.7296 48.15 37.8197 48.1887 37.9241L51.4616 46.7301C51.4923 46.8125 51.5026 46.9011 51.4916 46.9883C51.4806 47.0755 51.4488 47.1588 51.3987 47.231C51.3486 47.3033 51.2817 47.3623 51.2038 47.4031C51.1259 47.4439 51.0394 47.4653 50.9515 47.4653H50.9534Z" fill="black"/>
<path d="M23.7004 46.581C23.7594 46.7078 23.7794 46.8493 23.758 46.9875C23.7366 47.1257 23.6747 47.2545 23.5802 47.3575C23.4856 47.4606 23.3626 47.5333 23.2267 47.5664C23.0908 47.5996 22.9482 47.5918 22.8168 47.5439C22.6853 47.496 22.5711 47.4102 22.4884 47.2974C22.4057 47.1846 22.3583 47.0498 22.3522 46.9101C22.3461 46.7703 22.3816 46.6319 22.4542 46.5124C22.5267 46.3928 22.6331 46.2974 22.7598 46.2383C22.8441 46.199 22.9353 46.1766 23.0281 46.1726C23.121 46.1685 23.2138 46.1828 23.3012 46.2147C23.3885 46.2465 23.4687 46.2952 23.5372 46.3581C23.6057 46.4209 23.6612 46.4967 23.7004 46.581Z" fill="black"/>
<path d="M19.492 50.9876H3.13228C3.00281 50.9884 2.8773 50.9429 2.77832 50.8595C2.67934 50.776 2.61337 50.66 2.59227 50.5323L0.507949 38.0839C0.494431 38.0057 0.498188 37.9255 0.518957 37.8489C0.539726 37.7723 0.577003 37.7012 0.628174 37.6405C0.679345 37.5799 0.74317 37.5311 0.815171 37.4978C0.887172 37.4644 0.965606 37.4471 1.04497 37.4473H21.5803C21.6594 37.4472 21.7377 37.4644 21.8095 37.4976C21.8813 37.5309 21.945 37.5795 21.9962 37.6399C22.0473 37.7003 22.0847 37.7712 22.1056 37.8475C22.1265 37.9239 22.1305 38.0039 22.1173 38.0819L20.028 50.5323C20.0068 50.6594 19.9412 50.7749 19.8429 50.8583C19.7446 50.9416 19.6199 50.9875 19.491 50.9876H19.492ZM3.59358 49.9007H19.0317L20.9366 38.5432H1.6886L3.59358 49.9007Z" fill="black"/>
<path d="M12.54 44.8184H10.0841C9.93951 44.8184 9.80089 44.761 9.69868 44.6588C9.59648 44.5566 9.53906 44.418 9.53906 44.2734C9.53906 44.1289 9.59648 43.9903 9.69868 43.8881C9.80089 43.7859 9.93951 43.7285 10.0841 43.7285H12.54C12.6845 43.7285 12.8231 43.7859 12.9254 43.8881C13.0276 43.9903 13.085 44.1289 13.085 44.2734C13.085 44.418 13.0276 44.5566 12.9254 44.6588C12.8231 44.761 12.6845 44.8184 12.54 44.8184Z" fill="black"/>
</g>
<defs>
<clipPath id="clip0_200_372">
<rect width="53" height="53" fill="white" transform="translate(0.5)"/>
</clipPath>
</defs>
</svg>
