<svg width="641" height="601" viewBox="0 0 641 601" fill="none" xmlns="http://www.w3.org/2000/svg">
<path fill-rule="evenodd" clip-rule="evenodd" d="M211.146 187.811C217.46 207.202 223.771 226.593 230.084 245.985C232.419 253.156 231.077 261.842 231.285 269.448C231.707 284.932 232.308 300.328 238.649 314.128C244.569 327.013 251.855 339.121 259.304 350.786C269.414 333.528 285.085 320.035 300.157 309.849C310.542 302.831 321.889 296.594 333.793 294.573C337.493 293.944 341.576 293.518 345.246 294.68C344.749 287.856 344.658 280.927 345.086 274.097C345.757 263.394 348.083 256.127 354.842 248.98C358.281 245.345 361.985 242.069 365.758 238.957C367.104 237.847 371.07 235.878 371.881 234.147C372.593 232.627 371.949 228.248 372.044 226.45C372.378 220.15 373.189 213.834 374.725 207.789C377.63 196.36 382.777 185.804 385.994 174.452C381.204 173.629 376.413 172.807 371.623 171.984C368.379 171.427 366.232 169.785 364.152 172.637C356.95 182.512 350.805 193.885 344.221 204.365C339.88 211.275 335.656 218.219 330.741 224.571C322.886 234.722 308.75 251.157 297.16 238.366C291.209 231.799 290.305 220.52 290.187 211.415C290.026 199.02 291.597 186.624 293.384 174.452C275.853 172.445 257.789 175.892 240.596 179.796C230.712 182.04 220.855 184.638 211.146 187.811Z" fill="#FFCD6B"/>
<path fill-rule="evenodd" clip-rule="evenodd" d="M311.004 112.162C298.097 112.162 292.497 132.689 308.053 132.496C320.189 132.344 326.589 112.162 311.004 112.162ZM306.063 136.421C286.692 136.421 293.797 108.381 311.077 108.308C332.398 108.217 322.977 136.417 306.063 136.421ZM516.859 497.246C509.002 499.201 501.108 501.231 493.462 504.189C488.771 506.004 483.452 511.201 480.914 503.599C479.863 500.45 479.438 497.114 478.167 494.059C476.704 490.54 474.783 487.314 472.747 484.247C468.11 477.268 463.261 469.927 457.988 463.66C447.752 451.493 438.152 438.074 425.724 429.264C422.531 427.001 419.879 423.374 416.801 420.765C413.493 417.963 410.173 415.185 406.781 412.531C399.834 407.097 392.753 401.9 385.573 396.923C389.187 391.656 394.175 388.109 398.802 384.296C403.753 380.216 408.622 375.952 413.507 371.766C415.648 369.932 416.689 369.46 419.077 371.036C421.274 372.486 423.426 374.306 425.524 375.957C430.674 380.006 435.25 384.776 439.349 390.29C448.179 402.166 458.511 411.753 468.341 422.349C478.317 433.101 488.256 444.401 496.73 456.908C501.271 463.608 505.743 470.598 509.68 477.834C511.761 481.657 513.526 485.691 515.34 489.698C516.045 491.258 519.791 496.517 516.859 497.246ZM380.889 386.601C380.649 387.293 380.11 387.902 379.489 387.393C379.322 387.255 379.797 383.992 379.823 383.6C380.011 380.787 380.048 377.962 380.012 375.143C379.945 369.824 379.567 364.522 379.282 359.215C378.704 348.466 378.609 337.674 377.569 326.965C379.788 328.285 382.815 330.202 384.364 332.627C385.635 334.617 385.444 336.357 385.466 338.8C385.533 346.179 386.493 353.52 386.935 360.872C387.113 363.841 387.222 366.805 387.868 369.69C388.413 372.128 389.648 374.837 389.107 377.421C388.183 381.831 383.491 383.9 380.889 386.601ZM393.077 340.476C395.766 342.686 398.844 343.968 399.397 348.258C399.932 352.414 399.197 356.224 400.389 360.305C401.098 362.726 402.612 365.688 401.375 368.053C400.084 370.521 396.844 371.779 394.962 373.498C394.589 368.114 394.904 362.702 394.577 357.317C394.236 351.685 393.077 346.14 393.077 340.476ZM406.448 352.861C408.79 355.121 411.133 357.38 413.475 359.641C411.132 361.174 408.79 362.709 406.448 364.243V352.861ZM371.712 396.094C369.984 397.776 367.021 395.796 365.54 394.573C363.233 392.666 362.827 390.958 363.047 387.655C363.591 379.481 362.344 371.592 361.224 363.524C358.71 345.419 356.666 327.18 355.449 308.88C359.823 311.405 365.599 314.237 368.334 319.346C370.101 322.644 369.583 326.863 369.499 330.613C369.384 335.73 369.028 340.838 369.037 345.958C369.055 356.028 369.993 366.094 370.229 376.162C370.328 380.385 370.316 384.718 371.997 388.551C372.375 389.413 374.331 391.969 374.384 392.677C374.484 393.994 372.523 395.29 371.712 396.094ZM350.435 383.719C344.871 380.24 344.173 371.297 342.859 364.758C341.028 355.642 339.27 346.335 338.209 337.04C337.166 327.9 337.358 318.636 336.171 309.51C335.91 307.507 334.252 303.057 334.95 301.068C335.833 298.553 339.132 298.618 340.99 298.236C342.691 297.885 345.883 295.701 346.981 297.544C347.893 299.075 347.013 302.573 346.798 304.216C345.799 311.87 346.798 319.591 347.524 327.248C349.381 346.818 350.896 366.392 353.662 385.824C352.587 385.121 351.521 384.398 350.435 383.719ZM340.943 403.631C340.781 400.151 340.62 396.672 340.458 393.193C342.149 393.958 343.839 394.723 345.53 395.489C344.199 398.347 343.01 401.407 340.943 403.631ZM335.036 412.295C333.459 414.267 332.062 416.853 329.883 417.94V389.888C331.731 390.217 333.808 389.629 334.564 392.065C335.142 393.927 334.366 396.817 334.589 398.857C334.956 402.221 337.357 409.394 335.036 412.295ZM324.193 371.032C322.572 355.353 322.098 339.539 319.985 323.929C319.507 320.396 318.961 316.968 318.243 313.495C317.788 311.299 316.843 308.626 318.02 306.564C319.832 303.388 324.916 303.48 327.691 302.692C327.357 327.275 328.316 352.345 335.47 375.64C333.111 375.313 324.591 374.894 324.193 371.032ZM323.281 424.806C320.253 427.441 317.511 431.261 313.792 432.49C313.56 421.338 313.423 410.179 313.064 399.033C312.98 396.439 312.923 393.822 312.703 391.238C312.61 390.138 311.996 387.875 312.437 386.77C313.568 383.942 317.714 385.871 319.428 387.151C321.79 388.916 321.526 391.823 321.489 394.939C321.443 398.912 321.495 402.732 321.739 406.708C321.954 410.233 322.228 413.647 322.744 417.12C322.917 418.284 324.298 423.92 323.281 424.806ZM308.746 436.894C305.073 439.313 303.716 434.696 302.033 431.654C300.878 429.567 299.033 427.585 298.567 425.053C298.098 422.506 299.147 419.93 299.325 417.416C299.753 411.375 298.124 405.144 297.491 399.19C296.773 392.427 296.51 385.567 296.51 378.752C299.285 380.267 304.253 380.329 305.251 384.437C305.694 386.261 305.101 388.615 305.01 390.476C304.856 393.611 304.942 396.775 304.911 399.916C304.783 412.365 305.205 424.519 310.961 435.335C310.229 435.867 309.491 436.387 308.746 436.894ZM296.964 444.465C290.749 447.629 284.772 451.661 278.211 453.743C271.647 455.825 264.956 457.707 258.302 459.328C244.379 462.721 230.076 464.707 215.855 464.161C208.895 463.893 202.046 462.792 195.169 461.527C188.206 460.245 182.177 457.232 175.587 454.459C162.776 449.07 149.646 445.577 137.5 438.052C134.569 436.236 131.718 434.249 128.807 432.391C127.261 431.404 125.361 430.98 125.277 428.629C125.19 426.193 127.378 421.722 128.245 419.539C129.589 416.159 131.664 413.473 133.768 410.747C137.337 406.126 140.687 399.253 145.016 395.691C147.403 393.727 148.384 394.927 150.479 396.678C153.237 398.984 156.53 400.625 159.618 402.199C172.321 408.673 186.76 412.595 200.426 414.512C213.88 416.398 227.182 418.233 240.578 414.385C248.16 412.208 255.275 408.546 262.441 404.935C264.81 403.742 267.474 401.118 269.639 403.168C271.958 405.364 273.339 409.895 275.232 412.673C279.767 419.322 285.394 424.495 289.928 431.127C291.029 432.738 300.153 442.843 296.964 444.465ZM118.837 412.649C116.826 416.213 115.015 420.068 114.441 424.377C110.579 420.654 107.943 419.393 111.049 413.509C113.952 408.009 116.533 402.403 119.177 396.709C120.256 394.383 121.859 391.655 121.508 388.835C121.109 385.621 118.727 384.179 116.41 385.629C114.765 386.658 113.526 389.38 112.441 391.123C110.484 394.267 108.781 397.607 107.118 400.982C105.884 403.49 104.716 407.551 102.991 409.474C101.83 410.768 100.363 410.837 100.055 408.305C99.7807 406.055 102.56 402.086 103.388 400.296C104.739 397.378 106.225 394.529 107.285 391.432C108.385 388.224 109.105 377.596 103.803 382.879C101.973 384.702 100.433 388.224 99.0538 390.532C96.9342 394.083 94.9434 397.746 93.1098 401.52C89.8729 398.919 86.7923 394.812 82.8864 393.694C79.1738 392.63 75.8398 396.68 72.6711 398.546C67.7376 401.452 63.0796 404.977 58.3817 408.385C54.1891 411.427 49.7297 413.808 45.6171 417.026C38.4631 422.624 29.7504 430 20.765 426.673C17.2051 425.356 13.2739 422.644 11.3395 418.678C8.72567 413.318 9.39321 406.176 7.71141 400.373C12.4745 403.541 17.4947 399.884 21.6955 397.155C26.4031 394.097 31.2862 391.483 36.2264 389.016C46.438 383.918 57.0266 379.466 67.0767 373.966C86.7152 363.219 103.271 345.889 122.977 335.383C127.612 351.538 135.27 366.421 145.416 378.414C135.727 388.835 126.172 399.646 118.837 412.649ZM273.971 348.29C271.341 346.798 268.141 346.485 269.965 342.362C271.261 339.434 274.078 337.397 275.858 334.907L278.051 350.82C276.693 349.973 275.355 349.077 273.971 348.29ZM288.856 357.057C288.521 349.126 287.695 340.948 285.262 333.519C284.549 331.341 283.326 328.774 284.347 326.509C285.389 324.193 288.456 322.927 290.349 321.96C291.792 335.474 292.487 349.224 295.831 362.323C293.365 361.509 289.028 361.112 288.856 357.057ZM290.902 411.441C290.915 411.681 290.927 411.919 290.94 412.159C288.408 410.656 285.577 408.333 284.26 405.212C282.879 401.939 283.617 398.177 283.635 394.678C283.654 390.638 283.081 386.73 282.46 382.779C281.757 378.321 282.195 374.143 282.432 369.661C284.465 371.313 287.52 372.477 288.859 375.109C290.261 377.863 289.455 381.452 289.178 384.442C288.354 393.335 288.966 402.8 290.902 411.441ZM314.592 370.318C309.705 369.494 307.104 368.305 306.245 362.201C305.189 354.706 304.077 347.254 303.224 339.719C302.43 332.722 299.701 325.467 299.43 318.489C299.238 313.577 306.102 311.827 309.211 309.999C310.872 330.119 311.698 350.372 314.592 370.318ZM264.678 337.727C264.135 339.225 263.683 340.768 263.19 342.29C259.74 336.135 256.339 330.11 252.321 324.46C248.6 319.225 245.498 313.88 243.591 307.345C241.523 300.262 239.628 292.744 239.004 285.252C238.375 277.698 238.953 269.949 239.097 262.376C239.182 257.975 241.232 246.865 238.361 243.28C237.307 241.963 235.64 242.409 234.448 241.19C232.813 239.52 232.285 236.097 231.61 233.802C227.354 219.342 223.604 204.444 217.337 191C225.695 186.701 235.153 184.54 243.958 181.91C253.204 179.149 262.809 177.443 272.299 176.494C276.882 176.036 281.471 175.842 286.069 175.883C289.8 175.917 293.533 175.167 292.269 180.88C290.358 189.512 288.974 198.356 289.065 207.33C289.196 220.434 291.987 237.826 303.095 243.798C320.397 253.099 334.044 230.749 342.904 216.58C349.096 206.676 355.067 196.883 360.413 186.252C362.161 182.777 363.654 177.419 366.984 175.685C371.116 173.535 377.077 175.025 381.443 175.025C381.112 181.355 380.776 186.654 378.493 192.477C376.281 198.119 374.47 203.799 372.982 209.775C371.558 215.49 370.912 220.828 370.321 226.665C369.796 231.853 365.378 230.02 362.218 231.507C354.807 234.997 350.814 245.563 347.882 253.713C346.009 258.92 344.075 264.251 343.276 269.88C342.321 276.613 343.009 283.465 343.224 290.235C341.946 290.562 340.544 289.32 339.339 288.977C337.5 288.455 335.494 288.439 333.621 288.586C329.494 288.911 325.31 289.797 321.283 290.902C312.576 293.29 304.344 297.599 296.459 302.568C283.678 310.623 270.641 321.272 264.678 337.727ZM221.823 234.133C208.753 239.539 195.487 244.58 181.855 247.507C175.151 248.947 168.443 248.639 161.67 248.398C158.558 248.287 155.854 247.67 152.837 246.9C150.541 246.314 146.712 244.885 144.58 246.532C143.339 241.616 136.778 241.525 133.414 240.734C130.678 240.09 128.268 238.431 125.58 237.651C124.571 237.359 123.587 237.409 122.695 236.796C121.837 236.209 121.354 234.874 120.462 234.353C119.18 233.605 117.623 233.555 116.679 232.49C114.489 230.022 112.039 227.825 109.87 225.317C107.68 222.787 106.641 219.517 105.148 216.378C103.402 212.707 100.691 209.095 99.4043 205.188C99.9696 205.655 100.531 206.127 101.09 206.606C100.784 202.011 99.7355 197.97 100.001 193.207C100.133 190.857 99.9348 189.35 99.6873 187.127C99.4984 185.43 99.6821 184.033 99.7029 182.132C99.7592 177.057 101.154 172.411 101.817 167.455C102.037 165.81 102.154 164.044 102.214 162.415C102.268 160.927 101.497 158.946 101.643 157.342C102.222 157.696 102.743 158.145 103.207 158.692C101.908 154.872 106.08 150.331 106.542 146.684C107.238 141.199 102.893 139.808 99.2198 140.464C94.2759 141.347 89.7091 144.859 85.2838 147.428C79.2249 150.948 73.1986 154.483 67.2612 158.294C60.2962 162.764 54.215 168.692 47.3589 173.255C46.4906 173.833 43.2937 176.328 42.7143 174.247C42.2001 172.402 45.7719 169.061 46.6395 168.101C51.0952 163.169 56.0924 158.799 61.0919 154.698C64.5451 151.864 68.1636 149.33 71.6991 146.65C75.4976 143.77 80.8215 140.521 82.3122 135.018C83.5391 130.49 82.1144 126.376 77.8676 127.676C72.3718 129.359 66.8678 133.988 61.8224 137.064C56.7822 140.137 51.6649 143.041 46.6558 146.186C45.5386 146.887 41.2496 150.513 41.972 147.616C42.5558 145.273 45.9275 142.446 47.3819 140.845C49.5356 138.472 51.8049 136.253 54.1417 134.145C59.0804 129.69 64.328 125.744 69.6572 122.007C72.9259 119.714 76.4451 117.296 76.6185 112.197C76.9141 103.451 70.3077 108.092 66.4958 109.827C61.3964 112.146 56.1124 113.816 51.0003 116.097C46.3394 118.175 41.6326 120.433 36.6628 121.193C34.1201 121.582 30.3372 121.699 30.9491 117.43C31.6063 112.856 37.0407 109.715 40.0094 107.675C45.0896 104.183 50.2957 102.853 55.9376 101.331C62.0802 99.6738 68.1384 97.8899 74.3507 96.6057C86.9382 94.0026 99.0539 93.0826 111.77 94.4728C117.599 95.1096 123.522 94.4274 129.286 95.0686C133.119 95.4943 135.995 98.3619 138.078 102.072C143.154 111.115 145.286 123.445 144.47 134.13C143.287 149.61 137.668 162.657 132.865 176.752C129.212 187.474 126.486 202.371 136.283 209.673C140.909 213.121 146.132 212.881 151.313 211.974C158.304 210.751 165.189 208.805 172.019 206.669C185.517 202.449 198.882 197.707 212.207 192.768C212.794 195.559 225.52 232.604 221.823 234.133ZM294.303 209.727C294.797 201.43 295.043 193.247 296.257 185.041C296.653 182.369 296.83 179.402 298.767 177.635C300.682 175.888 303.524 175.832 305.703 174.755C311.488 171.892 316.216 165.315 320.589 160.133C325.104 154.783 328.038 148.687 330.166 141.538C331.87 135.82 334.571 126.792 331.418 121.169C328.962 116.791 324.961 115.254 326.22 108.949C327.298 103.559 331.757 100.525 335.63 104.152C338.05 106.417 340.77 111.92 340.77 104.439C351.09 107.186 361.755 102.846 370.773 96.9584C372.535 95.8069 374.696 93.9794 376.488 95.7935C377.672 96.9922 378.058 99.3531 379.355 100.684C380.71 102.074 382.837 102.846 383.256 105.172C383.579 106.965 382.638 109.758 382.235 111.415C381.209 115.638 379.825 119.956 377.015 122.91C375.799 124.189 371.623 128.514 370.058 126.684C368.251 124.571 372.173 117.718 367.189 121.642C365.406 123.046 364.853 123.114 364.093 125.679C363.2 128.691 362.793 131.889 362.439 135.044C360.502 134.282 357.425 131.804 355.445 133.606C353.569 135.313 354.559 138.885 356.102 140.369C357.686 141.893 360.914 142.178 362.767 141.199C365.728 139.632 365.742 135.628 366.375 132.339C368.048 133.797 369.167 136.383 371.571 135.887C364.265 146.301 354.644 153.513 343.216 153.536C338.049 153.546 336.098 155.934 335.067 161.989C334.015 168.174 334.044 174.918 334.038 181.192C334.032 186.312 334.186 191.551 335.487 196.47C336.349 199.731 338.03 202.907 339.093 197.576C339.665 194.713 339.259 191.426 339.236 188.497C339.222 186.655 338.707 183.293 339.709 181.777C340.823 180.092 343.407 181.021 344.957 181.003C348.211 180.965 351.324 179.505 354.581 179.505C349.769 188.024 344.319 195.989 339.713 204.681C335.004 213.568 329.28 221.915 322.343 228.439C316.548 233.89 308.48 236.703 301.901 231.394C296.257 226.841 293.837 217.572 294.303 209.727ZM383.962 131.636C386.063 135.239 379.283 142.332 376.683 142.278C377.346 140.995 382.647 129.382 383.962 131.636ZM388.58 180.963C389.351 178.299 393.71 178.519 395.52 178.448C399.465 178.292 403.417 178.28 407.366 178.134C418.162 177.737 428.95 176.8 439.756 177.008C450.942 177.222 462.138 175.943 473.304 176.411C483.912 176.855 494.482 178.041 504.911 180.443C524.017 184.844 543.879 191.119 559.151 206.54C572.869 220.391 583.09 240.436 580.927 262.591C579.593 276.253 579.108 290.602 574.803 303.517C571.144 314.493 563.463 321.294 555.531 327.616C555.426 324.986 561.256 307.957 555.034 310.561C553.027 311.401 551.863 314.722 550.769 316.713C548.85 320.206 546.794 323.626 544.713 326.983C540.937 333.078 536.601 338.842 531.03 342.609C528.873 344.069 522.009 348.363 520.788 343.653C519.778 339.751 526.332 331.85 527.875 328.864C529.243 326.216 530.338 323.66 529.823 320.508C529.625 319.294 529.016 318.178 528.788 316.963C528.605 315.98 528.818 314.475 528.448 313.577C525.974 307.571 523.336 317.974 522.554 319.852C519.847 326.35 513.543 330.58 508.638 334.306C502.538 338.941 496.502 343.962 489.419 346.153C493.851 337.03 498.382 327.966 502.407 318.567C506.155 309.817 508.524 299.692 512.902 291.572C513.642 290.201 514.144 288.715 514.73 287.072C515.095 286.049 515.644 282.562 516.128 281.951C516.402 281.604 517.934 281.472 518.535 280.77C519.275 279.906 519.691 278.537 520.068 277.413C520.514 276.077 522.226 271.427 521.777 269.914C521.683 269.598 520.459 269.735 520.247 269.152C519.998 268.468 520.179 267.969 520.153 267.272C520.094 265.664 520.941 264.449 519.941 262.911C524.998 262.911 520.285 246.563 519.421 243.592C518.46 240.288 516.849 237.916 516.107 234.694C515.203 230.763 512.688 227.317 510.443 224.349C508.198 221.379 505.854 217.837 503.327 215.253C500.71 212.576 497.176 211.061 494.202 209.034C492.876 208.13 491.457 206.929 489.934 206.562C489.44 206.739 488.948 206.923 488.458 207.114C487.887 206.754 487.379 206.292 486.936 205.727C484.093 203.95 481.307 203.31 478.106 202.845C462.289 200.547 445.336 200.133 429.456 201.746C421.206 202.583 412.818 203.538 404.692 205.483C396.277 207.497 387.998 210.069 379.491 211.551C381.412 200.919 385.618 191.183 388.58 180.963ZM434.358 50.5193C435.818 50.286 435.205 52.6772 434.734 53.3968C434.12 52.5499 433.995 51.5907 434.358 50.5193ZM639.288 556.208C638.093 549.288 633.993 542.152 629.268 538.016C623.437 532.91 616.853 532.852 610.002 533.268C602.15 533.745 594.524 535.393 586.792 536.974C578.933 538.58 571.2 539.963 563.573 542.837C560.518 543.989 557.413 544.959 554.4 546.257C552.153 547.226 549.555 549.084 548.431 545.556C546.385 539.147 554.252 536.361 557.383 533.657C559.089 532.184 561.355 530.056 559.216 527.775C556.686 525.08 552.399 527.673 549.82 528.788C547.439 529.819 545.024 530.176 545.629 525.605C546.032 522.569 549.31 520.601 551.144 518.827C553.401 516.646 561.323 510.222 556.241 506.965C550.83 503.499 547.793 512.147 543.17 512.592C539.101 512.984 539.127 500.955 537.989 497.661C535.116 489.34 527.922 498.445 524.691 493.427C523.358 491.358 523.818 487.635 523.32 485.21C522.501 481.217 520.6 477.298 519.066 473.639C515.668 465.543 511.744 457.764 507.352 450.391C502.966 443.026 498.107 436.693 492.577 430.569C487.031 424.426 482.197 417.447 476.742 411.193C465.885 398.746 453.371 388.502 442.245 376.359C439.677 373.556 437.23 370.633 434.231 368.482C431.477 366.509 426.925 365.445 424.732 362.637C423.305 360.812 423.54 358.245 422.848 355.999C421.676 352.194 418.859 349.617 416.447 346.957C405.235 334.591 393.504 322.306 380.337 313.007C373.952 308.497 367.482 302.883 360.631 299.487C358.418 298.389 355.425 297.934 353.603 295.924C351.693 293.817 351.333 290.135 350.611 287.287C346.131 269.621 355.359 251.327 366.563 240.351C368.556 238.399 371.428 236.788 372.709 234.054C374.112 231.06 374.179 227.219 375.676 224.175C378.45 218.537 385.995 219.315 390.759 218.034C419.524 210.298 453.662 207.302 481.858 219.643C493.706 224.828 503.883 233.556 508.415 248.091C510.46 254.651 511.537 261.766 511.367 268.777C511.178 276.589 508.799 283.837 506.623 291.113C504.007 299.862 501.079 308.482 497.69 316.841C494.632 324.387 490.755 331.18 487.378 338.481C485.28 343.017 481.954 351.381 486.753 355.134C490.58 358.128 496.656 356.378 500.432 354.189C506.079 350.914 510.255 345.036 515.197 340.56C515.218 344.995 511.937 348.967 513.432 353.454C514.917 357.911 518.947 357.333 522.13 356.246C525.766 355.003 529.534 353.074 532.861 350.931C537.065 348.223 540.088 344.07 543.659 340.386C549.933 333.916 558.27 331.749 564.989 326.139C571.934 320.34 576.732 311.563 579.659 302.146C583.05 291.239 584.436 279.544 585.604 268.043C586.759 256.665 587.325 245.45 584.191 234.431C578.23 213.474 566.133 196.949 549.875 186.583C515.569 164.71 476.816 165.605 439.138 166.805C428.812 167.135 418.476 167.301 408.164 168.114C403.424 168.488 398.673 168.953 393.965 169.721C392.529 169.955 389.315 171.275 388.036 169.861C387.049 168.771 387.628 166.477 386.733 165.161C384.603 162.034 379.853 162.838 377.017 163.255C373.435 163.779 369.215 163.872 365.995 165.97C362.898 167.987 361.821 172.213 357.984 172.276C353.718 172.346 349.259 171.126 344.96 170.93C341.579 170.776 338.578 169.376 341.817 164.924C344.286 161.53 348.422 161.55 351.78 160.781C357.988 159.361 372.1 146.883 376.75 155.535C378.027 157.909 377.935 158.771 380.388 159.809C382.656 160.77 385.231 161.237 387.607 161.705C392.028 162.576 397.169 163.277 401.494 161.423C408.217 158.54 409.607 149.461 411.176 142.115C418.356 146.7 429.198 148.829 436.287 142.835C442.245 137.798 444.387 127.239 444.13 118.95C444.054 116.485 443.782 113.957 443.052 111.637C442.376 109.486 440.552 107.25 440.619 104.858C440.678 102.775 442.314 100.965 443.064 99.2187C444.178 96.6271 444.712 93.5493 444.933 90.6602C445.74 80.0544 439.148 74.1365 432.295 69.257C436.32 63.4968 440.821 57.7481 440.469 49.6786C440.143 42.1488 435.192 36.9087 430.087 33.3767C425.521 30.2178 420.914 28.995 415.792 28.2291C413.559 27.8952 412.706 28.1704 413.062 25.4025C413.344 23.2045 414.659 21.2515 415.064 19.0758C417.425 6.39847 407.002 1.57333 398.568 0.469019C384.68 -1.34954 371.802 2.04979 360.521 11.9013C352.277 -8.96484 324.788 1.3302 317.127 17.5013C316.122 19.6217 315.38 21.9256 315.033 24.3355C314.802 25.9484 315.528 29.7511 314.858 30.9766C313.553 33.366 308.35 31.1039 306.517 31.2179C303.158 31.4254 299.56 33.5183 296.847 35.8017C285.383 45.452 285.963 65.2806 288.716 79.846C281.347 81.0474 273.899 88.3741 273.751 97.7937C273.675 102.521 275.1 107.854 277.401 111.675C279.755 115.588 284.051 118.203 284.492 123.406C284.955 128.879 283.994 132.09 287.801 136.217C290.591 139.243 294.282 141.688 297.807 143.22C306.058 146.807 315.447 145.536 323.463 141.666C319.389 149.397 312.87 156.288 306.52 161.251C303.672 163.477 300.324 166.338 297.114 167.723C293.631 169.226 289.319 166.603 285.719 166.241C269.542 164.614 252.883 168.152 237.315 172.984C220.466 178.214 203.809 183.959 187.086 189.769C178.807 192.645 170.541 195.684 162.176 198.186C155.896 200.064 148.9 201.716 142.409 200.385C136.877 199.25 134.163 194.765 135.945 188.036C138.294 179.172 142.876 170.906 145.716 162.199C150.969 146.095 153.572 127.593 148.978 110.826C147.118 104.037 144.471 96.1542 139.406 91.9258C136.728 89.6904 133.377 88.3724 130.472 86.6063C126.781 84.3621 122.815 82.7377 118.822 81.4597C102.781 76.3255 85.858 78.7256 69.838 82.6807C55.3678 86.2537 32.888 91.3202 26.4253 109.958C24.2153 116.331 23.4122 127.104 28.9065 131.55C33.6356 135.375 40.7747 132.9 45.3741 130.012C40.8918 136.21 35.3255 142.118 33.1629 150.162C32.402 152.994 31.816 156.903 33.3533 159.528C35.5878 163.344 39.387 161.1 42.3883 160.205C38.8677 165.664 33.7978 174.365 37.3918 181.342C41.3681 189.06 49.3837 183.887 54.3321 180.664C61.6742 175.882 69.3305 171.85 76.6867 167.097C80.6274 164.552 84.4918 161.851 87.9288 158.387C90.7745 155.518 93.1883 152.473 97.1157 152.127C91.9903 163.757 86.9382 175.853 87.0316 189.339C87.119 201.897 91.2205 216.825 96.7623 227.461C102.561 238.588 111.923 245.439 121.803 250.36C132.561 255.719 143.535 259.338 155.221 259.919C178 261.053 202.556 254.676 222.214 240.676C223.685 239.629 223.737 239.262 225.114 240.475C226.878 242.029 228.294 247.624 229.397 249.973C232.631 256.86 231.675 262.651 231.064 270.201C229.979 283.611 232.418 297.161 235.849 309.856C239.277 322.542 244.975 332.583 252.11 342.673C255.312 347.2 258.64 350.774 262.965 353.678C267.667 356.837 271.676 359.589 273.501 366.018C275.021 371.378 274.774 375.958 272.661 381.003C272.114 382.308 271.065 386.298 270.063 387.208C269.109 388.075 268.856 387.299 267.972 387.582C266.357 388.096 265.896 388.384 264.592 389.872C261.102 393.853 255.938 394.907 251.417 396.531C245.199 398.767 238.799 400.938 232.286 401.333C221.07 402.015 208.252 401.937 197.453 398.052C186.577 394.139 175.305 391.887 164.841 386.421C160.083 383.936 157.89 382.664 156.88 376.44C156.344 373.137 155.576 372.879 153.274 371.93C150.63 370.838 149.572 369.336 148.013 366.447C145.226 361.28 142.571 356.034 139.98 350.722C136.734 344.071 132.673 337.964 129.619 331.197C127.793 327.154 126.407 320.046 121.653 319.887C118.831 319.794 115.757 322.261 113.222 323.515C110.131 325.045 107.015 326.501 103.93 328.05C92.0577 334.017 81.4557 342.98 70.6063 351.198C58.7648 360.167 45.2222 366.508 32.685 374.063C26.835 377.588 21.2488 381.635 15.9018 386.172C12.4442 389.104 5.69399 392.303 6.19927 398.128C4.48858 397.005 2.34817 395.045 0.711567 397.379C-0.6398 399.305 0.287042 402.848 0.627107 405.039C1.7451 412.25 3.07498 419.596 6.73048 425.64C12.5205 435.215 23.5559 443.066 33.6119 441.342C45.9046 439.235 55.7635 428.724 66.3269 421.82C70.1854 419.298 74.0588 416.949 77.7135 414.021C79.8673 412.296 83.6606 408.575 86.49 409.023C90.8064 409.706 87.1975 415.845 86.0151 418.238C84.7637 420.772 83.7184 423.443 82.6011 426.068C81.3483 429.008 79.2657 432.29 78.5478 435.476C78.0936 437.492 78.3151 440.55 80.4029 441.054C82.5263 441.568 84.3437 438.263 85.4209 436.626C87.1961 433.925 88.6741 430.97 90.1981 428.064C91.2094 426.134 92.4578 422.455 94.1655 421.248C98.5893 418.123 93.7514 428.144 92.9571 429.512C91.9607 431.23 90.5159 433.303 90.2752 435.423C89.9203 438.544 92.0347 441.556 94.7523 440.809C96.846 440.233 98.2581 437.611 99.4361 435.68C100.193 434.439 102.456 429.598 103.923 429.552C104.83 429.524 107.119 433.312 107.826 434.133C109.881 436.52 112.317 438.149 114.872 439.637C126.704 446.528 137.461 455.353 149.803 461.08C161.594 466.552 173.889 470.863 186.16 474.418C192.632 476.293 198.682 478.337 205.356 478.997C212.109 479.664 218.765 479.33 225.527 479.163C239.323 478.819 252.324 475.378 265.579 470.988C289.117 463.191 311.233 450.394 329.452 430.579C334.161 425.458 338.424 419.835 342.454 413.945C344.205 411.388 346.038 408.854 347.52 406.058C348.511 404.188 349.411 400.986 351.155 399.918C353.842 398.272 360.036 403.481 362.46 404.925C365.114 406.506 367.83 408.572 370.721 409.398C371.808 409.708 372.866 409.735 373.931 410.179C374.993 410.623 376.247 412.026 377.459 411.713C381.972 410.543 374.574 400.096 381.194 405.388C391.768 413.84 401.653 423.946 411.62 433.393C414.115 435.757 416.672 437.836 419.34 439.908C421.836 441.849 423.75 444.492 426.139 446.592C431.371 451.188 436.304 456.095 441.063 461.388C445.778 466.632 450.299 472.179 455.28 477.061C460.164 481.847 463.969 487.373 468.079 493.076C472.09 498.641 475.083 505.039 477.929 511.52C475.549 510.523 473.551 508.821 472.243 512.551C471.399 514.951 472.12 518.243 472.664 520.632C474.409 528.29 478.073 535.163 480.275 542.635C482.782 551.147 486.486 559.318 488.573 567.979C490.42 575.642 489.985 584.124 492.625 591.55C494.793 597.647 502.689 596.235 507.249 596.78C514.54 597.651 521.744 598.637 529.074 598.911C544.325 599.478 559.772 600.866 575.022 600.159C588.892 599.515 602.731 598.492 616.555 597.058C620.338 596.665 628.758 595.754 629.629 589.783C630.192 585.926 627.339 586.506 625.177 586.746C622.098 587.089 618.985 587.034 615.894 587.097C601.091 587.402 586.556 587.646 571.78 586.291C556.67 584.906 541.57 584.563 526.45 583.887C519.636 583.583 513.015 583.438 506.22 583.809C504.192 583.92 501.7 584.213 500.565 581.851C499.425 579.478 499.584 573.836 499.069 571.166C497.274 561.875 493.335 553.645 490.686 544.719C488.014 535.714 485.353 526.741 481.941 518.09C492.876 515.781 503.795 513.18 514.576 509.988C518.964 508.687 523.596 507.818 527.856 506.051C532.564 504.099 532.669 505.166 533.566 510.517C534.348 515.179 535.239 518.497 531.693 521.602C528.012 524.826 523.505 526.758 520.188 530.587C517.157 534.083 517.767 539.092 522.633 538.368C527.447 537.653 532.966 533.292 537.327 530.861C537.936 534.032 538.504 536.292 536.798 539.03C534.99 541.93 532.236 543.781 530.196 546.411C528.691 548.352 527.11 551.198 529.585 553.079C532.13 555.013 534.671 552.486 536.574 550.738C538.015 549.413 540.391 546.49 542.308 548.13C544.304 549.837 543.247 554.165 544.426 556.494C546.418 560.43 547.794 557.518 549.735 555.854C552.857 553.176 559.224 553.921 562.943 553.55C567.406 553.106 571.76 552.117 576.194 551.459C581.478 550.675 586.8 550.637 592.077 549.732C600.174 548.343 609.063 544.381 617.187 546.866C629.854 550.742 635.995 567.081 633.985 581.808C633.59 584.71 631.638 591.115 633.888 593.602C635.998 595.937 637.516 591.746 638.283 589.74C642.297 579.237 641.179 567.162 639.288 556.208Z" fill="black"/>
<path fill-rule="evenodd" clip-rule="evenodd" d="M83.4815 264.202C88.1772 270.087 94.4717 274.226 101.144 275.704C104.624 276.475 110.001 277.637 113.207 275.227C114.828 274.009 115.685 271.631 114.643 269.433C113.405 266.821 110.162 266.919 108.037 266.559C100.185 265.233 93.7353 262.652 87.746 256.19C82.2487 250.26 78.5213 242.684 75.8749 234.454C74.6428 230.619 74.1027 226.717 73.2818 222.755C72.8172 220.513 71.5955 215.272 69.5811 219.082C66.4294 225.044 70.4857 237.147 72.2897 242.911C74.7872 250.896 78.5702 258.043 83.4815 264.202Z" fill="black"/>
<path fill-rule="evenodd" clip-rule="evenodd" d="M271.899 48.5774C276.368 43.0487 278.581 35.7219 283.681 30.7C284.632 29.7649 288.284 27.7985 288.242 26.0993C288.186 23.8639 286.03 24.2505 284.911 24.6868C279.402 26.8331 268.959 41.5062 271.899 48.5774Z" fill="black"/>
<path fill-rule="evenodd" clip-rule="evenodd" d="M356.286 128.629C358.114 126.852 362.537 122.293 362.236 119.107C361.954 116.12 359.907 116.873 358.305 118.074C357.615 118.591 356.037 120.764 355.004 120.195C353.953 119.617 354.754 119.819 354.346 118.74C353.779 117.237 354.706 113.129 352.287 114.306C350.849 115.006 350.134 119.097 350.034 120.67C349.785 124.612 352.049 132.748 356.286 128.629Z" fill="black"/>
<path fill-rule="evenodd" clip-rule="evenodd" d="M341.78 142.27C342.091 144.563 344.757 148.961 347.016 146.61C348.821 144.733 346.699 142.581 345.909 140.771C345.397 139.597 344.707 135.416 343.269 135.485C341.023 135.593 341.553 140.6 341.78 142.27Z" fill="black"/>
<path fill-rule="evenodd" clip-rule="evenodd" d="M333.721 115.203C334.283 112.961 332.211 104.276 329.478 106.909C327.247 109.061 329.95 111.312 330.976 112.783C331.476 113.501 333.089 117.732 333.721 115.203Z" fill="black"/>
</svg>
