<svg version="1.1" viewBox="18.06666 35.733399999999996 67 29.599999999999998" xmlns:xlink="http://www.w3.org/1999/xlink" xmlns="http://www.w3.org/2000/svg" style="max-height: 500px" width="67" height="29.599999999999998">
<g id="surface1">
<rect style="fill:rgb(100%,100%,100%);fill-opacity:1;stroke:none;" height="500" width="500" y="0" x="0"/>
<path d="M 15.421875 34.699219 L 87.03125 34.699219 L 87.03125 65.609375 L 15.421875 65.609375 Z M 15.421875 34.699219" style="stroke:none;fill-rule:nonzero;fill:rgb(100%,100%,100%);fill-opacity:1;"/>
<path d="M 16.339844 37.152344 L 86.730469 37.152344 L 86.730469 67.144531 L 16.339844 67.144531 Z M 16.339844 37.152344" style="stroke:none;fill-rule:nonzero;fill:rgb(100%,100%,100%);fill-opacity:1;"/>
<path d="M 31.238281 44.632812 C 30.835938 42.964844 29.816406 42.128906 28.171875 42.128906 C 27.308594 42.128906 26.5 42.410156 25.738281 42.976562 C 24.980469 43.539062 24.378906 44.285156 23.9375 45.210938 C 23.492188 46.132812 23.269531 47.074219 23.269531 48.035156 C 23.269531 49.230469 23.582031 50.195312 24.207031 50.925781 C 24.832031 51.65625 25.675781 52.023438 26.734375 52.023438 C 27.691406 52.023438 28.5 51.78125 29.152344 51.292969 C 29.808594 50.804688 30.238281 50.136719 30.445312 49.289062 L 27.109375 49.289062 L 27.628906 46.074219 L 35.75 46.074219 C 35.386719 48.273438 34.777344 50.007812 33.921875 51.28125 C 33.066406 52.554688 31.980469 53.558594 30.667969 54.289062 C 29.351562 55.015625 27.851562 55.378906 26.167969 55.378906 C 24 55.378906 22.257812 54.769531 20.941406 53.546875 C 19.625 52.320312 18.96875 50.6875 18.96875 48.640625 C 18.96875 46.84375 19.390625 45.175781 20.238281 43.632812 C 21.089844 42.085938 22.277344 40.863281 23.808594 39.957031 C 25.339844 39.054688 27.058594 38.601562 28.964844 38.601562 C 32.289062 38.601562 34.425781 40.066406 35.375 43.003906 Z M 31.238281 44.632812" style="stroke:none;fill-rule:nonzero;fill:rgb(27.843139%,27.058825%,27.058825%);fill-opacity:1;"/>
<path d="M 48.042969 42.292969 C 48.042969 43.269531 47.761719 44.117188 47.199219 44.835938 C 46.636719 45.550781 45.71875 46.191406 44.453125 46.761719 L 46.125 48.847656 C 47.167969 48.011719 47.972656 47.269531 48.542969 46.613281 L 50.503906 48.828125 L 47.960938 51.144531 L 50.902344 54.859375 L 45.789062 54.859375 L 44.660156 53.398438 C 42.601562 54.652344 40.710938 55.277344 38.984375 55.277344 C 37.648438 55.277344 36.578125 54.933594 35.78125 54.246094 C 34.980469 53.554688 34.582031 52.65625 34.582031 51.542969 C 34.582031 50.386719 34.929688 49.367188 35.621094 48.476562 C 36.320312 47.585938 37.488281 46.832031 39.128906 46.21875 C 38.671875 45.484375 38.390625 44.957031 38.285156 44.644531 C 38.179688 44.332031 38.128906 43.988281 38.128906 43.613281 C 38.128906 42.246094 38.6875 41.089844 39.808594 40.136719 C 40.929688 39.183594 42.242188 38.707031 43.742188 38.707031 C 44.980469 38.707031 46.007812 39.046875 46.820312 39.730469 C 47.636719 40.410156 48.042969 41.265625 48.042969 42.292969 Z M 42.992188 44.863281 C 44.175781 44.238281 44.769531 43.511719 44.769531 42.691406 C 44.769531 42.34375 44.667969 42.058594 44.464844 41.828125 C 44.261719 41.597656 43.980469 41.480469 43.621094 41.480469 C 43.203125 41.480469 42.839844 41.628906 42.53125 41.929688 C 42.226562 42.230469 42.074219 42.582031 42.074219 42.984375 C 42.074219 43.457031 42.378906 44.082031 42.992188 44.863281 Z M 40.550781 51.605469 C 41.230469 51.605469 41.992188 51.390625 42.828125 50.957031 L 40.761719 48.285156 C 39.5625 48.925781 38.964844 49.621094 38.964844 50.375 C 38.964844 50.746094 39.117188 51.046875 39.421875 51.269531 C 39.730469 51.492188 40.105469 51.605469 40.550781 51.605469 Z M 40.550781 51.605469" style="stroke:none;fill-rule:nonzero;fill:rgb(27.843139%,27.058825%,27.058825%);fill-opacity:1;"/>
<path d="M 63.136719 44.632812 C 62.734375 42.964844 61.710938 42.128906 60.070312 42.128906 C 59.207031 42.128906 58.394531 42.410156 57.636719 42.976562 C 56.878906 43.539062 56.277344 44.285156 55.832031 45.210938 C 55.386719 46.132812 55.167969 47.074219 55.167969 48.035156 C 55.167969 49.230469 55.480469 50.195312 56.105469 50.925781 C 56.730469 51.65625 57.574219 52.023438 58.628906 52.023438 C 59.589844 52.023438 60.394531 51.78125 61.050781 51.292969 C 61.703125 50.804688 62.136719 50.136719 62.34375 49.289062 L 59.003906 49.289062 L 59.527344 46.074219 L 67.644531 46.074219 C 67.285156 48.273438 66.675781 50.007812 65.820312 51.28125 C 64.964844 52.554688 63.878906 53.558594 62.5625 54.289062 C 61.25 55.015625 59.75 55.378906 58.066406 55.378906 C 55.894531 55.378906 54.152344 54.769531 52.839844 53.546875 C 51.523438 52.320312 50.867188 50.6875 50.867188 48.640625 C 50.867188 46.84375 51.289062 45.175781 52.136719 43.632812 C 52.984375 42.085938 54.175781 40.863281 55.707031 39.957031 C 57.238281 39.054688 58.957031 38.601562 60.863281 38.601562 C 64.1875 38.601562 66.324219 40.066406 67.269531 43.003906 Z M 63.136719 44.632812" style="stroke:none;fill-rule:nonzero;fill:rgb(27.843139%,27.058825%,27.058825%);fill-opacity:1;"/>
<path d="M 79.019531 44.632812 C 78.617188 42.964844 77.597656 42.128906 75.957031 42.128906 C 75.09375 42.128906 74.28125 42.410156 73.519531 42.976562 C 72.761719 43.539062 72.160156 44.285156 71.71875 45.210938 C 71.273438 46.132812 71.050781 47.074219 71.050781 48.035156 C 71.050781 49.230469 71.363281 50.195312 71.992188 50.925781 C 72.617188 51.65625 73.457031 52.023438 74.515625 52.023438 C 75.476562 52.023438 76.28125 51.78125 76.933594 51.292969 C 77.589844 50.804688 78.019531 50.136719 78.226562 49.289062 L 74.890625 49.289062 L 75.410156 46.074219 L 83.53125 46.074219 C 83.167969 48.273438 82.5625 50.007812 81.703125 51.28125 C 80.847656 52.554688 79.765625 53.558594 78.449219 54.289062 C 77.132812 55.015625 75.632812 55.378906 73.953125 55.378906 C 71.78125 55.378906 70.039062 54.769531 68.722656 53.546875 C 67.40625 52.320312 66.75 50.6875 66.75 48.640625 C 66.75 46.84375 67.175781 45.175781 68.019531 43.632812 C 68.871094 42.085938 70.0625 40.863281 71.589844 39.957031 C 73.121094 39.054688 74.839844 38.601562 76.75 38.601562 C 80.074219 38.601562 82.210938 40.066406 83.15625 43.003906 Z M 79.019531 44.632812" style="stroke:none;fill-rule:nonzero;fill:rgb(27.843139%,27.058825%,27.058825%);fill-opacity:1;"/>
<path d="M 25.9375 62.382812 C 25.621094 62.382812 25.332031 62.335938 25.078125 62.246094 C 24.824219 62.152344 24.628906 62.058594 24.488281 61.957031 L 24.457031 61.117188 L 24.527344 61.105469 C 24.605469 61.3125 24.710938 61.507812 24.839844 61.6875 C 24.972656 61.867188 25.136719 62.011719 25.339844 62.117188 C 25.539062 62.222656 25.78125 62.277344 26.058594 62.277344 C 26.21875 62.277344 26.371094 62.242188 26.507812 62.179688 C 26.640625 62.109375 26.75 62.015625 26.832031 61.894531 C 26.917969 61.773438 26.960938 61.632812 26.960938 61.472656 C 26.960938 61.320312 26.917969 61.1875 26.835938 61.074219 C 26.757812 60.960938 26.652344 60.863281 26.527344 60.777344 C 26.398438 60.695312 26.257812 60.621094 26.117188 60.554688 C 25.972656 60.492188 25.835938 60.4375 25.710938 60.386719 C 25.472656 60.289062 25.265625 60.191406 25.089844 60.09375 C 24.917969 59.996094 24.78125 59.875 24.6875 59.734375 C 24.59375 59.597656 24.546875 59.421875 24.546875 59.207031 C 24.546875 58.96875 24.605469 58.765625 24.726562 58.59375 C 24.851562 58.425781 25.023438 58.292969 25.242188 58.195312 C 25.464844 58.101562 25.722656 58.054688 26.015625 58.054688 C 26.289062 58.054688 26.527344 58.085938 26.722656 58.144531 C 26.921875 58.207031 27.078125 58.269531 27.195312 58.332031 L 27.21875 59.035156 L 27.160156 59.050781 C 27.046875 58.789062 26.882812 58.574219 26.667969 58.40625 C 26.453125 58.234375 26.171875 58.148438 25.824219 58.148438 C 25.664062 58.148438 25.511719 58.179688 25.375 58.246094 C 25.234375 58.308594 25.125 58.398438 25.042969 58.511719 C 24.960938 58.628906 24.921875 58.773438 24.921875 58.945312 C 24.921875 59.089844 24.953125 59.214844 25.023438 59.316406 C 25.089844 59.421875 25.179688 59.511719 25.292969 59.589844 C 25.402344 59.667969 25.527344 59.734375 25.65625 59.789062 C 25.792969 59.847656 25.921875 59.90625 26.050781 59.957031 C 26.277344 60.046875 26.492188 60.140625 26.6875 60.242188 C 26.886719 60.339844 27.042969 60.464844 27.167969 60.609375 C 27.292969 60.753906 27.355469 60.941406 27.355469 61.171875 C 27.355469 61.421875 27.285156 61.640625 27.144531 61.824219 C 27.007812 62.003906 26.832031 62.144531 26.617188 62.242188 C 26.402344 62.335938 26.175781 62.382812 25.9375 62.382812 Z M 25.9375 62.382812" style="stroke:none;fill-rule:nonzero;fill:rgb(100%,80.392158%,41.960785%);fill-opacity:1;"/>
<path d="M 27.707031 62.324219 L 27.707031 62.246094 C 27.800781 62.214844 27.867188 62.15625 27.902344 62.0625 C 27.933594 61.972656 27.953125 61.804688 27.953125 61.558594 L 27.953125 58.355469 C 27.953125 58.214844 27.941406 58.109375 27.925781 58.039062 C 27.90625 57.96875 27.878906 57.917969 27.84375 57.886719 C 27.8125 57.851562 27.765625 57.820312 27.707031 57.796875 L 27.707031 57.730469 L 28.367188 57.445312 L 28.421875 57.488281 L 28.421875 59.820312 C 28.597656 59.675781 28.796875 59.550781 29.015625 59.4375 C 29.242188 59.320312 29.46875 59.261719 29.703125 59.261719 C 30 59.261719 30.234375 59.347656 30.402344 59.523438 C 30.570312 59.695312 30.65625 59.957031 30.65625 60.3125 L 30.65625 61.558594 C 30.65625 61.804688 30.671875 61.972656 30.707031 62.0625 C 30.738281 62.15625 30.804688 62.214844 30.898438 62.246094 L 30.898438 62.324219 L 29.945312 62.324219 L 29.945312 62.246094 C 30.035156 62.214844 30.097656 62.15625 30.132812 62.0625 C 30.167969 61.972656 30.183594 61.804688 30.183594 61.558594 L 30.183594 60.433594 C 30.183594 60.117188 30.117188 59.878906 29.984375 59.710938 C 29.851562 59.542969 29.652344 59.460938 29.386719 59.460938 C 29.222656 59.460938 29.058594 59.503906 28.894531 59.589844 C 28.730469 59.675781 28.574219 59.785156 28.421875 59.914062 L 28.421875 61.558594 C 28.421875 61.804688 28.4375 61.972656 28.472656 62.0625 C 28.507812 62.15625 28.570312 62.214844 28.664062 62.246094 L 28.664062 62.324219 Z M 27.707031 62.324219" style="stroke:none;fill-rule:nonzero;fill:rgb(100%,80.392158%,41.960785%);fill-opacity:1;"/>
<path d="M 31.234375 62.324219 L 31.234375 62.246094 C 31.328125 62.214844 31.390625 62.15625 31.425781 62.0625 C 31.457031 61.972656 31.476562 61.804688 31.476562 61.558594 L 31.476562 60.164062 C 31.476562 60.027344 31.46875 59.921875 31.453125 59.851562 C 31.4375 59.777344 31.410156 59.726562 31.375 59.695312 C 31.335938 59.664062 31.292969 59.636719 31.234375 59.613281 L 31.234375 59.546875 L 31.898438 59.253906 L 31.949219 59.296875 L 31.949219 61.558594 C 31.949219 61.804688 31.96875 61.972656 32 62.0625 C 32.039062 62.15625 32.101562 62.214844 32.191406 62.246094 L 32.191406 62.324219 Z M 31.347656 58.554688 C 31.347656 58.460938 31.378906 58.378906 31.441406 58.316406 C 31.507812 58.25 31.585938 58.214844 31.679688 58.214844 C 31.773438 58.214844 31.851562 58.25 31.914062 58.316406 C 31.976562 58.378906 32.007812 58.460938 32.007812 58.554688 C 32.007812 58.644531 31.976562 58.722656 31.910156 58.789062 C 31.847656 58.855469 31.769531 58.886719 31.679688 58.886719 C 31.585938 58.886719 31.507812 58.855469 31.441406 58.789062 C 31.378906 58.722656 31.347656 58.644531 31.347656 58.554688 Z M 31.347656 58.554688" style="stroke:none;fill-rule:nonzero;fill:rgb(100%,80.392158%,41.960785%);fill-opacity:1;"/>
<path d="M 32.59375 62.324219 L 32.59375 62.246094 C 32.6875 62.214844 32.75 62.15625 32.785156 62.0625 C 32.816406 61.972656 32.835938 61.804688 32.835938 61.558594 L 32.835938 60.164062 C 32.835938 60.027344 32.828125 59.921875 32.8125 59.851562 C 32.796875 59.777344 32.769531 59.726562 32.734375 59.695312 C 32.695312 59.664062 32.648438 59.636719 32.59375 59.613281 L 32.59375 59.546875 L 33.257812 59.253906 L 33.308594 59.296875 L 33.308594 59.820312 C 33.484375 59.675781 33.683594 59.550781 33.90625 59.4375 C 34.125 59.320312 34.351562 59.261719 34.585938 59.261719 C 34.886719 59.261719 35.121094 59.347656 35.289062 59.523438 C 35.457031 59.695312 35.542969 59.957031 35.542969 60.3125 L 35.542969 61.558594 C 35.542969 61.804688 35.558594 61.972656 35.59375 62.0625 C 35.628906 62.15625 35.691406 62.214844 35.78125 62.246094 L 35.78125 62.324219 L 34.828125 62.324219 L 34.828125 62.246094 C 34.921875 62.214844 34.988281 62.15625 35.019531 62.0625 C 35.054688 61.972656 35.074219 61.804688 35.074219 61.558594 L 35.074219 60.433594 C 35.074219 60.117188 35.003906 59.878906 34.871094 59.710938 C 34.738281 59.542969 34.542969 59.460938 34.277344 59.460938 C 34.109375 59.460938 33.945312 59.503906 33.78125 59.589844 C 33.617188 59.675781 33.460938 59.785156 33.308594 59.914062 L 33.308594 61.558594 C 33.308594 61.804688 33.324219 61.972656 33.359375 62.0625 C 33.398438 62.15625 33.460938 62.214844 33.550781 62.246094 L 33.550781 62.324219 Z M 32.59375 62.324219" style="stroke:none;fill-rule:nonzero;fill:rgb(100%,80.392158%,41.960785%);fill-opacity:1;"/>
<path d="M 37.578125 62.382812 C 37.414062 62.382812 37.246094 62.351562 37.078125 62.292969 C 36.910156 62.230469 36.753906 62.140625 36.609375 62.019531 C 36.46875 61.898438 36.355469 61.742188 36.273438 61.558594 C 36.1875 61.371094 36.144531 61.152344 36.144531 60.902344 C 36.144531 60.574219 36.21875 60.289062 36.367188 60.042969 C 36.511719 59.796875 36.707031 59.605469 36.949219 59.46875 C 37.191406 59.332031 37.453125 59.261719 37.734375 59.261719 C 37.988281 59.261719 38.203125 59.3125 38.382812 59.414062 C 38.5625 59.511719 38.699219 59.640625 38.800781 59.800781 C 38.902344 59.960938 38.953125 60.136719 38.953125 60.332031 L 36.589844 60.332031 C 36.582031 60.417969 36.574219 60.511719 36.574219 60.609375 C 36.574219 60.882812 36.628906 61.125 36.734375 61.335938 C 36.839844 61.546875 36.992188 61.710938 37.1875 61.832031 C 37.382812 61.945312 37.609375 62.003906 37.875 62.003906 C 38.109375 62.003906 38.308594 61.957031 38.480469 61.859375 C 38.65625 61.761719 38.8125 61.636719 38.949219 61.480469 L 39.003906 61.53125 C 38.902344 61.671875 38.78125 61.808594 38.640625 61.941406 C 38.5 62.074219 38.339844 62.179688 38.164062 62.261719 C 37.992188 62.339844 37.796875 62.382812 37.578125 62.382812 Z M 36.609375 60.253906 L 38.472656 60.253906 C 38.453125 60.117188 38.402344 59.980469 38.324219 59.847656 C 38.246094 59.710938 38.140625 59.597656 38.007812 59.507812 C 37.878906 59.414062 37.722656 59.367188 37.535156 59.367188 C 37.277344 59.367188 37.070312 59.449219 36.914062 59.617188 C 36.757812 59.785156 36.660156 60 36.609375 60.253906 Z M 36.609375 60.253906" style="stroke:none;fill-rule:nonzero;fill:rgb(100%,80.392158%,41.960785%);fill-opacity:1;"/>
<path d="M 40.632812 62.324219 L 40.632812 62.246094 C 40.726562 62.214844 40.789062 62.15625 40.824219 62.0625 C 40.855469 61.972656 40.875 61.804688 40.875 61.558594 L 40.875 60.164062 C 40.875 60.027344 40.867188 59.921875 40.851562 59.851562 C 40.835938 59.777344 40.808594 59.726562 40.773438 59.695312 C 40.734375 59.664062 40.6875 59.636719 40.632812 59.613281 L 40.632812 59.546875 L 41.296875 59.253906 L 41.347656 59.296875 L 41.347656 61.558594 C 41.347656 61.804688 41.363281 61.972656 41.398438 62.0625 C 41.4375 62.15625 41.5 62.214844 41.589844 62.246094 L 41.589844 62.324219 Z M 40.742188 58.554688 C 40.742188 58.460938 40.777344 58.378906 40.839844 58.316406 C 40.902344 58.25 40.984375 58.214844 41.074219 58.214844 C 41.171875 58.214844 41.25 58.25 41.3125 58.316406 C 41.375 58.378906 41.40625 58.460938 41.40625 58.554688 C 41.40625 58.644531 41.375 58.722656 41.308594 58.789062 C 41.246094 58.855469 41.167969 58.886719 41.074219 58.886719 C 40.984375 58.886719 40.902344 58.855469 40.839844 58.789062 C 40.777344 58.722656 40.742188 58.644531 40.742188 58.554688 Z M 40.742188 58.554688" style="stroke:none;fill-rule:nonzero;fill:rgb(100%,80.392158%,41.960785%);fill-opacity:1;"/>
<path d="M 41.992188 62.324219 L 41.992188 62.246094 C 42.085938 62.214844 42.148438 62.15625 42.183594 62.0625 C 42.214844 61.972656 42.234375 61.804688 42.234375 61.558594 L 42.234375 60.164062 C 42.234375 60.027344 42.226562 59.921875 42.210938 59.851562 C 42.195312 59.777344 42.167969 59.726562 42.128906 59.695312 C 42.09375 59.664062 42.046875 59.636719 41.992188 59.613281 L 41.992188 59.546875 L 42.65625 59.253906 L 42.707031 59.296875 L 42.707031 59.820312 C 42.882812 59.675781 43.082031 59.550781 43.300781 59.4375 C 43.523438 59.320312 43.75 59.261719 43.984375 59.261719 C 44.285156 59.261719 44.519531 59.347656 44.6875 59.523438 C 44.855469 59.695312 44.941406 59.957031 44.941406 60.3125 L 44.941406 61.558594 C 44.941406 61.804688 44.957031 61.972656 44.992188 62.0625 C 45.023438 62.15625 45.085938 62.214844 45.179688 62.246094 L 45.179688 62.324219 L 44.226562 62.324219 L 44.226562 62.246094 C 44.320312 62.214844 44.382812 62.15625 44.417969 62.0625 C 44.453125 61.972656 44.46875 61.804688 44.46875 61.558594 L 44.46875 60.433594 C 44.46875 60.117188 44.402344 59.878906 44.269531 59.710938 C 44.136719 59.542969 43.9375 59.460938 43.671875 59.460938 C 43.507812 59.460938 43.34375 59.503906 43.179688 59.589844 C 43.015625 59.675781 42.859375 59.785156 42.707031 59.914062 L 42.707031 61.558594 C 42.707031 61.804688 42.722656 61.972656 42.757812 62.0625 C 42.792969 62.15625 42.859375 62.214844 42.949219 62.246094 L 42.949219 62.324219 Z M 41.992188 62.324219" style="stroke:none;fill-rule:nonzero;fill:rgb(100%,80.392158%,41.960785%);fill-opacity:1;"/>
<path d="M 49.125 62.324219 C 49.003906 62.324219 48.945312 62.265625 48.945312 62.140625 L 48.945312 61.054688 C 48.886719 61.300781 48.789062 61.527344 48.664062 61.726562 C 48.53125 61.929688 48.382812 62.085938 48.207031 62.207031 C 48.035156 62.324219 47.851562 62.382812 47.652344 62.382812 C 47.503906 62.382812 47.363281 62.351562 47.234375 62.292969 C 47.105469 62.230469 47 62.144531 46.921875 62.027344 C 46.84375 61.914062 46.808594 61.769531 46.808594 61.59375 C 46.808594 61.382812 46.867188 61.214844 46.992188 61.082031 C 47.121094 60.945312 47.285156 60.839844 47.492188 60.753906 C 47.699219 60.667969 47.921875 60.59375 48.160156 60.527344 L 48.945312 60.320312 C 48.925781 60.027344 48.84375 59.808594 48.703125 59.667969 C 48.554688 59.53125 48.355469 59.460938 48.097656 59.460938 C 47.917969 59.460938 47.738281 59.503906 47.570312 59.589844 C 47.398438 59.675781 47.234375 59.8125 47.082031 60 L 47.027344 59.949219 C 47.203125 59.734375 47.398438 59.570312 47.617188 59.449219 C 47.835938 59.324219 48.078125 59.261719 48.339844 59.261719 C 48.707031 59.261719 48.976562 59.359375 49.148438 59.550781 C 49.320312 59.738281 49.40625 60.007812 49.40625 60.347656 L 49.40625 61.558594 C 49.40625 61.804688 49.425781 61.972656 49.460938 62.0625 C 49.492188 62.15625 49.558594 62.214844 49.652344 62.246094 L 49.652344 62.324219 Z M 47.257812 61.425781 C 47.257812 61.621094 47.316406 61.773438 47.433594 61.875 C 47.554688 61.976562 47.703125 62.027344 47.878906 62.027344 C 48.035156 62.027344 48.183594 61.984375 48.3125 61.894531 C 48.441406 61.800781 48.554688 61.683594 48.644531 61.539062 C 48.742188 61.394531 48.8125 61.238281 48.867188 61.070312 C 48.917969 60.898438 48.945312 60.734375 48.945312 60.582031 L 48.945312 60.398438 L 48.183594 60.605469 C 48.035156 60.644531 47.886719 60.695312 47.742188 60.761719 C 47.601562 60.828125 47.484375 60.914062 47.390625 61.019531 C 47.300781 61.125 47.257812 61.257812 47.257812 61.425781 Z M 47.257812 61.425781" style="stroke:none;fill-rule:nonzero;fill:rgb(100%,80.392158%,41.960785%);fill-opacity:1;"/>
<path d="M 50.023438 62.324219 L 50.023438 62.246094 C 50.117188 62.214844 50.179688 62.15625 50.214844 62.0625 C 50.246094 61.972656 50.265625 61.804688 50.265625 61.558594 L 50.265625 58.355469 C 50.265625 58.214844 50.253906 58.109375 50.238281 58.039062 C 50.222656 57.96875 50.195312 57.917969 50.164062 57.886719 C 50.128906 57.851562 50.082031 57.820312 50.023438 57.796875 L 50.023438 57.730469 L 50.683594 57.445312 L 50.738281 57.488281 L 50.738281 61.558594 C 50.738281 61.804688 50.753906 61.972656 50.789062 62.0625 C 50.824219 62.15625 50.886719 62.214844 50.980469 62.246094 L 50.980469 62.324219 Z M 50.023438 62.324219" style="stroke:none;fill-rule:nonzero;fill:rgb(100%,80.392158%,41.960785%);fill-opacity:1;"/>
<path d="M 51.457031 62.324219 L 51.457031 62.246094 C 51.546875 62.214844 51.609375 62.15625 51.644531 62.0625 C 51.679688 61.972656 51.695312 61.804688 51.695312 61.558594 L 51.695312 58.355469 C 51.695312 58.214844 51.6875 58.109375 51.667969 58.039062 C 51.652344 57.96875 51.628906 57.917969 51.59375 57.886719 C 51.558594 57.851562 51.511719 57.820312 51.457031 57.796875 L 51.457031 57.730469 L 52.113281 57.445312 L 52.171875 57.488281 L 52.171875 61.558594 C 52.171875 61.804688 52.1875 61.972656 52.222656 62.0625 C 52.253906 62.15625 52.316406 62.214844 52.410156 62.246094 L 52.410156 62.324219 Z M 51.457031 62.324219" style="stroke:none;fill-rule:nonzero;fill:rgb(100%,80.392158%,41.960785%);fill-opacity:1;"/>
<path d="M 54.164062 62.324219 L 54.164062 62.246094 C 54.253906 62.214844 54.320312 62.15625 54.351562 62.0625 C 54.386719 61.972656 54.402344 61.804688 54.402344 61.558594 L 54.402344 59.433594 L 54.054688 59.433594 L 54.085938 59.34375 L 54.402344 59.34375 C 54.417969 59.121094 54.476562 58.902344 54.578125 58.699219 C 54.679688 58.492188 54.816406 58.304688 54.984375 58.140625 C 55.152344 57.980469 55.34375 57.851562 55.5625 57.753906 C 55.785156 57.660156 56.019531 57.613281 56.261719 57.613281 C 56.539062 57.613281 56.675781 57.667969 56.675781 57.769531 C 56.675781 57.804688 56.660156 57.851562 56.625 57.90625 C 56.59375 57.960938 56.546875 58.011719 56.492188 58.054688 C 56.433594 58.097656 56.363281 58.117188 56.277344 58.117188 C 56.140625 58.117188 56.003906 58.101562 55.863281 58.0625 C 55.726562 58.023438 55.574219 57.972656 55.402344 57.914062 C 55.332031 57.949219 55.257812 58.003906 55.171875 58.074219 C 55.089844 58.144531 55.019531 58.253906 54.960938 58.394531 C 54.902344 58.535156 54.875 58.730469 54.875 58.980469 L 54.875 59.34375 L 55.667969 59.34375 L 55.632812 59.433594 L 54.875 59.433594 L 54.875 61.558594 C 54.875 61.804688 54.890625 61.972656 54.925781 62.0625 C 54.957031 62.15625 55.023438 62.214844 55.117188 62.246094 L 55.117188 62.324219 Z M 54.164062 62.324219" style="stroke:none;fill-rule:nonzero;fill:rgb(100%,80.392158%,41.960785%);fill-opacity:1;"/>
<path d="M 57.410156 62.382812 C 57.246094 62.382812 57.078125 62.351562 56.910156 62.292969 C 56.742188 62.230469 56.585938 62.140625 56.445312 62.019531 C 56.304688 61.898438 56.191406 61.742188 56.105469 61.558594 C 56.019531 61.371094 55.980469 61.152344 55.980469 60.902344 C 55.980469 60.574219 56.054688 60.289062 56.199219 60.042969 C 56.347656 59.796875 56.542969 59.605469 56.785156 59.46875 C 57.027344 59.332031 57.289062 59.261719 57.570312 59.261719 C 57.824219 59.261719 58.039062 59.3125 58.21875 59.414062 C 58.394531 59.511719 58.535156 59.640625 58.636719 59.800781 C 58.734375 59.960938 58.785156 60.136719 58.789062 60.332031 L 56.425781 60.332031 C 56.414062 60.417969 56.410156 60.511719 56.410156 60.609375 C 56.410156 60.882812 56.460938 61.125 56.566406 61.335938 C 56.675781 61.546875 56.824219 61.710938 57.019531 61.832031 C 57.214844 61.945312 57.445312 62.003906 57.707031 62.003906 C 57.941406 62.003906 58.144531 61.957031 58.316406 61.859375 C 58.488281 61.761719 58.644531 61.636719 58.785156 61.480469 L 58.835938 61.53125 C 58.734375 61.671875 58.617188 61.808594 58.472656 61.941406 C 58.332031 62.074219 58.175781 62.179688 58 62.261719 C 57.828125 62.339844 57.628906 62.382812 57.410156 62.382812 Z M 56.445312 60.253906 L 58.308594 60.253906 C 58.285156 60.117188 58.238281 59.980469 58.15625 59.847656 C 58.078125 59.710938 57.972656 59.597656 57.84375 59.507812 C 57.710938 59.414062 57.554688 59.367188 57.367188 59.367188 C 57.109375 59.367188 56.902344 59.449219 56.75 59.617188 C 56.59375 59.785156 56.492188 60 56.445312 60.253906 Z M 56.445312 60.253906" style="stroke:none;fill-rule:nonzero;fill:rgb(100%,80.392158%,41.960785%);fill-opacity:1;"/>
<path d="M 59.199219 62.324219 L 59.199219 62.246094 C 59.292969 62.214844 59.355469 62.15625 59.390625 62.0625 C 59.421875 61.972656 59.441406 61.804688 59.441406 61.558594 L 59.441406 60.164062 C 59.441406 60.027344 59.429688 59.921875 59.414062 59.851562 C 59.394531 59.777344 59.367188 59.726562 59.332031 59.695312 C 59.300781 59.664062 59.253906 59.636719 59.199219 59.613281 L 59.199219 59.546875 L 59.859375 59.253906 L 59.914062 59.296875 L 59.914062 59.8125 C 60.09375 59.667969 60.292969 59.539062 60.507812 59.429688 C 60.726562 59.316406 60.945312 59.261719 61.164062 59.261719 C 61.617188 59.261719 61.898438 59.453125 62 59.832031 C 62.183594 59.6875 62.382812 59.554688 62.609375 59.441406 C 62.832031 59.320312 63.054688 59.261719 63.28125 59.261719 C 63.578125 59.261719 63.796875 59.34375 63.945312 59.507812 C 64.097656 59.671875 64.171875 59.921875 64.171875 60.265625 L 64.171875 61.558594 C 64.171875 61.804688 64.1875 61.972656 64.226562 62.0625 C 64.261719 62.15625 64.324219 62.214844 64.410156 62.246094 L 64.410156 62.324219 L 63.457031 62.324219 L 63.457031 62.246094 C 63.550781 62.214844 63.617188 62.15625 63.648438 62.0625 C 63.683594 61.972656 63.703125 61.804688 63.703125 61.558594 L 63.703125 60.371094 C 63.703125 59.761719 63.46875 59.460938 63.011719 59.460938 C 62.835938 59.460938 62.667969 59.503906 62.507812 59.589844 C 62.347656 59.675781 62.1875 59.78125 62.019531 59.910156 C 62.042969 60.011719 62.054688 60.128906 62.054688 60.265625 L 62.054688 61.558594 C 62.054688 61.804688 62.074219 61.972656 62.105469 62.0625 C 62.140625 62.15625 62.203125 62.214844 62.296875 62.246094 L 62.296875 62.324219 L 61.34375 62.324219 L 61.34375 62.246094 C 61.4375 62.214844 61.5 62.15625 61.535156 62.0625 C 61.570312 61.972656 61.585938 61.804688 61.585938 61.558594 L 61.585938 60.371094 C 61.585938 59.761719 61.355469 59.460938 60.894531 59.460938 C 60.722656 59.460938 60.554688 59.503906 60.394531 59.585938 C 60.238281 59.667969 60.078125 59.769531 59.914062 59.898438 L 59.914062 61.558594 C 59.914062 61.804688 59.929688 61.972656 59.964844 62.0625 C 60 62.15625 60.0625 62.214844 60.152344 62.246094 L 60.152344 62.324219 Z M 59.199219 62.324219" style="stroke:none;fill-rule:nonzero;fill:rgb(100%,80.392158%,41.960785%);fill-opacity:1;"/>
<path d="M 64.730469 62.324219 L 64.730469 62.246094 C 64.824219 62.214844 64.886719 62.15625 64.921875 62.0625 C 64.953125 61.972656 64.972656 61.804688 64.972656 61.558594 L 64.972656 60.164062 C 64.972656 60.027344 64.964844 59.921875 64.949219 59.851562 C 64.933594 59.777344 64.90625 59.726562 64.871094 59.695312 C 64.832031 59.664062 64.785156 59.636719 64.730469 59.613281 L 64.730469 59.546875 L 65.394531 59.253906 L 65.445312 59.296875 L 65.445312 61.558594 C 65.445312 61.804688 65.460938 61.972656 65.496094 62.0625 C 65.535156 62.15625 65.597656 62.214844 65.6875 62.246094 L 65.6875 62.324219 Z M 64.84375 58.554688 C 64.84375 58.460938 64.875 58.378906 64.9375 58.316406 C 65.003906 58.25 65.082031 58.214844 65.171875 58.214844 C 65.269531 58.214844 65.347656 58.25 65.410156 58.316406 C 65.472656 58.378906 65.503906 58.460938 65.503906 58.554688 C 65.503906 58.644531 65.472656 58.722656 65.40625 58.789062 C 65.34375 58.855469 65.265625 58.886719 65.171875 58.886719 C 65.082031 58.886719 65.003906 58.855469 64.9375 58.789062 C 64.875 58.722656 64.84375 58.644531 64.84375 58.554688 Z M 64.84375 58.554688" style="stroke:none;fill-rule:nonzero;fill:rgb(100%,80.392158%,41.960785%);fill-opacity:1;"/>
<path d="M 66.089844 62.324219 L 66.089844 62.246094 C 66.183594 62.214844 66.246094 62.15625 66.28125 62.0625 C 66.3125 61.972656 66.332031 61.804688 66.332031 61.558594 L 66.332031 60.164062 C 66.332031 60.027344 66.324219 59.921875 66.308594 59.851562 C 66.292969 59.777344 66.265625 59.726562 66.230469 59.695312 C 66.191406 59.664062 66.144531 59.636719 66.089844 59.613281 L 66.089844 59.546875 L 66.753906 59.253906 L 66.804688 59.296875 L 66.804688 59.820312 C 66.980469 59.675781 67.179688 59.550781 67.402344 59.4375 C 67.621094 59.320312 67.847656 59.261719 68.082031 59.261719 C 68.382812 59.261719 68.617188 59.347656 68.785156 59.523438 C 68.953125 59.695312 69.039062 59.957031 69.039062 60.3125 L 69.039062 61.558594 C 69.039062 61.804688 69.054688 61.972656 69.089844 62.0625 C 69.121094 62.15625 69.1875 62.214844 69.277344 62.246094 L 69.277344 62.324219 L 68.324219 62.324219 L 68.324219 62.246094 C 68.417969 62.214844 68.484375 62.15625 68.515625 62.0625 C 68.550781 61.972656 68.570312 61.804688 68.570312 61.558594 L 68.570312 60.433594 C 68.570312 60.117188 68.5 59.878906 68.367188 59.710938 C 68.234375 59.542969 68.035156 59.460938 67.769531 59.460938 C 67.605469 59.460938 67.441406 59.503906 67.277344 59.589844 C 67.113281 59.675781 66.957031 59.785156 66.804688 59.914062 L 66.804688 61.558594 C 66.804688 61.804688 66.820312 61.972656 66.855469 62.0625 C 66.890625 62.15625 66.957031 62.214844 67.046875 62.246094 L 67.046875 62.324219 Z M 66.089844 62.324219" style="stroke:none;fill-rule:nonzero;fill:rgb(100%,80.392158%,41.960785%);fill-opacity:1;"/>
<path d="M 69.617188 62.324219 L 69.617188 62.246094 C 69.710938 62.214844 69.773438 62.15625 69.808594 62.0625 C 69.839844 61.972656 69.859375 61.804688 69.859375 61.558594 L 69.859375 60.164062 C 69.859375 60.027344 69.851562 59.921875 69.835938 59.851562 C 69.820312 59.777344 69.792969 59.726562 69.753906 59.695312 C 69.71875 59.664062 69.671875 59.636719 69.617188 59.613281 L 69.617188 59.546875 L 70.28125 59.253906 L 70.332031 59.296875 L 70.332031 61.558594 C 70.332031 61.804688 70.347656 61.972656 70.382812 62.0625 C 70.417969 62.15625 70.484375 62.214844 70.574219 62.246094 L 70.574219 62.324219 Z M 69.726562 58.554688 C 69.726562 58.460938 69.761719 58.378906 69.824219 58.316406 C 69.886719 58.25 69.96875 58.214844 70.058594 58.214844 C 70.15625 58.214844 70.234375 58.25 70.296875 58.316406 C 70.359375 58.378906 70.390625 58.460938 70.390625 58.554688 C 70.390625 58.644531 70.359375 58.722656 70.292969 58.789062 C 70.230469 58.855469 70.152344 58.886719 70.058594 58.886719 C 69.96875 58.886719 69.886719 58.855469 69.824219 58.789062 C 69.761719 58.722656 69.726562 58.644531 69.726562 58.554688 Z M 69.726562 58.554688" style="stroke:none;fill-rule:nonzero;fill:rgb(100%,80.392158%,41.960785%);fill-opacity:1;"/>
<path d="M 71.921875 62.382812 C 71.734375 62.382812 71.585938 62.320312 71.476562 62.191406 C 71.371094 62.058594 71.316406 61.835938 71.316406 61.519531 L 71.316406 59.386719 L 70.929688 59.386719 L 70.929688 59.300781 L 71.703125 58.558594 L 71.785156 58.558594 L 71.785156 59.300781 L 72.703125 59.300781 L 72.671875 59.386719 L 71.785156 59.386719 L 71.785156 61.519531 C 71.785156 61.722656 71.824219 61.871094 71.902344 61.957031 C 71.984375 62.042969 72.085938 62.085938 72.214844 62.085938 C 72.300781 62.085938 72.390625 62.066406 72.492188 62.019531 C 72.59375 61.972656 72.695312 61.890625 72.796875 61.777344 L 72.851562 61.828125 C 72.722656 61.976562 72.578125 62.105469 72.425781 62.21875 C 72.269531 62.328125 72.101562 62.382812 71.921875 62.382812 Z M 71.921875 62.382812" style="stroke:none;fill-rule:nonzero;fill:rgb(100%,80.392158%,41.960785%);fill-opacity:1;"/>
<path d="M 73.042969 63.488281 C 72.925781 63.492188 72.828125 63.476562 72.75 63.445312 C 72.671875 63.410156 72.632812 63.371094 72.632812 63.320312 C 72.632812 63.28125 72.648438 63.234375 72.679688 63.183594 C 72.710938 63.132812 72.757812 63.085938 72.8125 63.046875 C 72.867188 63.007812 72.933594 62.988281 73.007812 62.988281 C 73.085938 62.988281 73.199219 63.003906 73.34375 63.039062 C 73.488281 63.070312 73.632812 63.101562 73.769531 63.128906 C 73.871094 63.035156 73.96875 62.917969 74.058594 62.777344 C 74.15625 62.640625 74.238281 62.492188 74.316406 62.335938 L 73.328125 60.011719 C 73.234375 59.785156 73.148438 59.632812 73.070312 59.550781 C 72.992188 59.464844 72.925781 59.410156 72.859375 59.378906 L 72.859375 59.300781 L 73.773438 59.300781 L 73.773438 59.378906 C 73.683594 59.410156 73.644531 59.464844 73.660156 59.550781 C 73.679688 59.632812 73.738281 59.785156 73.832031 60.011719 L 74.578125 61.734375 L 75.320312 60.011719 C 75.402344 59.816406 75.441406 59.667969 75.433594 59.566406 C 75.425781 59.464844 75.367188 59.402344 75.265625 59.378906 L 75.265625 59.300781 L 75.933594 59.300781 L 75.933594 59.378906 C 75.851562 59.410156 75.765625 59.464844 75.683594 59.550781 C 75.601562 59.632812 75.507812 59.785156 75.410156 60.011719 L 74.476562 62.175781 C 74.34375 62.464844 74.214844 62.699219 74.089844 62.875 C 73.957031 63.054688 73.832031 63.1875 73.710938 63.273438 C 73.585938 63.363281 73.464844 63.417969 73.355469 63.445312 C 73.242188 63.472656 73.140625 63.488281 73.042969 63.488281 Z M 73.042969 63.488281" style="stroke:none;fill-rule:nonzero;fill:rgb(100%,80.392158%,41.960785%);fill-opacity:1;"/>
</g>
</svg>