<svg width="805" height="628" viewBox="0 0 805 628" fill="none" xmlns="http://www.w3.org/2000/svg">
<path fill-rule="evenodd" clip-rule="evenodd" d="M343.38 253.098C335.024 253.653 326.6 253.427 318.237 253.15C317.413 253.122 315.443 252.724 314.941 253.236C314.363 253.826 314.486 257.075 314.39 257.88C313.669 263.976 312.945 270.073 312.224 276.17C311.891 278.969 311.56 281.769 311.228 284.568C311.133 285.364 310.196 288.805 310.644 289.496C311.457 290.752 317.284 291.039 318.819 291.346L337.103 295.009C338.825 295.354 343.22 295.436 344.018 296.85C344.525 297.748 344.216 300.179 344.275 301.197L344.772 309.601C345.424 320.607 346.075 331.614 346.726 342.62C359.667 341.538 372.607 340.457 385.546 339.374C388.696 339.111 391.845 338.848 394.993 338.585C395.742 338.522 397.314 338.686 397.926 338.256C399.262 337.314 400.402 333.287 401.123 331.84C402.96 328.151 404.798 324.462 406.636 320.773C408.407 317.218 410.178 313.664 411.949 310.109C412.403 309.199 413.535 307.681 413.507 306.686C413.474 305.565 411.867 303.557 411.365 302.599C409.893 299.79 408.422 296.982 406.949 294.173C399.661 280.265 392.374 266.358 385.087 252.451C384.717 251.746 383.893 249.183 383.17 248.793C381.767 248.038 376.857 249.558 375.345 249.738C364.717 251 354.06 252.389 343.38 253.098Z" fill="#FFCD6B"/>
<path fill-rule="evenodd" clip-rule="evenodd" d="M220.117 229.207C222.7 232.395 225.283 235.583 227.867 238.771C234.717 229.977 241.567 221.183 248.418 212.388C244.983 210.792 241.55 209.195 238.116 207.599C235.068 206.183 235.457 206.856 233.529 209.665C229.059 216.179 224.588 222.693 220.117 229.207Z" fill="black"/>
<path fill-rule="evenodd" clip-rule="evenodd" d="M352.22 436.656C352.209 441.29 352.199 445.924 352.188 450.558C365.814 449.86 379.441 449.162 393.066 448.464C392.448 446.52 391.828 444.576 391.209 442.632C390.726 441.113 390.114 436.523 388.939 435.505C387.655 434.392 382.008 435.54 380.283 435.604C370.929 435.955 361.574 436.305 352.22 436.656Z" fill="black"/>
<path fill-rule="evenodd" clip-rule="evenodd" d="M319.756 85.8594C303.838 96.3197 287.919 106.781 272 117.241C275.515 121.517 279.029 125.793 282.543 130.068C283.385 131.092 283.534 131.741 284.497 131.641C285.617 131.525 287.503 129.696 288.436 129.091C299.721 121.785 311.005 114.479 322.289 107.173C325.703 104.963 329.118 102.752 332.532 100.541C328.274 95.6473 324.014 90.7533 319.756 85.8594Z" fill="black"/>
<path fill-rule="evenodd" clip-rule="evenodd" d="M689.615 249.356C689.04 244.493 686.683 239.55 684.959 235.046C682.926 229.74 680.786 224.478 678.594 219.241C677.206 215.926 676.703 216.741 673.073 216.889C668.832 217.061 664.591 217.234 660.352 217.406C663.617 229.737 666.882 242.067 670.147 254.397C670.712 256.531 671.626 264.533 673.407 265.614C674.024 265.988 676.154 265.506 676.853 265.48C678.854 265.401 680.854 265.323 682.854 265.246C685.573 265.14 688.292 265.034 691.011 264.927C690.632 259.731 690.227 254.529 689.615 249.356Z" fill="black"/>
<path fill-rule="evenodd" clip-rule="evenodd" d="M420.294 561.563C412.998 559.646 405.061 561.463 397.708 561.516C393.378 561.548 389.056 561.247 384.727 561.479C383.277 561.558 376.643 561.357 376.417 562.264C376.244 562.961 377.563 564.716 378.074 565.005C379.506 565.818 380.513 564.773 381.959 564.386C385.876 563.335 390.456 563.984 394.48 563.784C398.691 563.576 402.9 563.315 407.111 563.113C411.306 562.912 416.658 563.817 420.294 561.563ZM62.8305 168.184C62.2706 166.85 62.0406 164.732 60.7545 163.897C59.5633 163.123 57.0669 163.688 55.6902 163.668C52.7628 163.627 46.4067 163.745 44.4942 166.517C42.1691 169.886 49.0093 172.289 51.2905 172.225C55.2542 172.113 58.8605 168.946 62.8305 168.184ZM135.701 125.886C136.002 125.033 134.943 124.469 134.178 124.197C132.232 123.506 130.951 124.656 129.238 125.521C124.913 127.707 120.21 129.152 115.661 130.732C111.699 132.106 108.024 134.033 104.14 135.58C101.386 136.678 95.5734 136.464 93.9872 139.233C90.8559 144.703 99.0586 140.6 100.504 140.07C104.652 138.549 109.066 137.611 113.132 135.872C117.045 134.199 121.034 132.497 124.907 130.686C126.673 129.859 128.43 129.157 130.232 128.435C131.917 127.76 133.908 126.065 135.701 125.886ZM254.069 220.686C253.036 220.027 248.8 216.348 247.377 216.833C246.266 217.213 245.022 221.439 244.329 222.549C240.86 228.105 237.119 233.431 233.399 238.806C235.05 239.729 236.7 240.652 238.352 241.575C241.717 233.279 248.207 227.07 254.069 220.686ZM318.297 250.339C323.61 250.353 328.873 249.66 334.179 249.737C340.126 249.823 345.968 249.99 351.908 249.485C357.754 248.988 363.577 248.963 369.422 248.593C371.26 248.478 381.499 247.665 375.501 244.619C373.483 243.595 371.057 244.871 368.865 245.331C366.326 245.865 363.763 246.065 361.196 246.386C358.75 246.693 356.152 247.539 353.685 247.476C351.096 247.411 349.153 246.929 346.551 247.318C341.157 248.126 335.786 247.674 330.395 247.154C326.677 246.795 318.516 244.621 318.297 250.339ZM462.873 564.999C466.293 562.13 471.701 563.373 475.763 562.458C480.25 561.448 476.717 556.502 474.997 553.87C473.204 551.123 470.503 545.637 467.489 549.7C464.34 553.945 463.968 559.931 462.873 564.999ZM355.24 440.371C355.126 442.949 353.899 445.602 356.476 446.487C358.95 447.336 363.197 446.045 365.761 445.815C369.102 445.515 372.39 444.941 375.722 444.584C377.209 444.424 378.703 444.305 380.198 444.447C381.228 444.545 383.71 445.709 384.63 445.227C385.761 444.635 386.309 441.446 385.385 440.216C384.384 438.883 378.338 440.204 376.175 440.375C369.127 440.931 362.258 440.043 355.24 440.371ZM354.808 432.099C358.053 430.709 361.908 431.36 365.325 431.341C369.345 431.319 373.318 431.547 377.328 431.819C379.103 431.939 384.279 433.307 385.768 432.126C386.551 431.505 386.832 426.183 386.169 425.368C385.086 424.035 381.686 425.639 380.294 425.855C376.565 426.431 372.759 426.417 368.997 426.381C365.475 426.347 361.942 426.185 358.423 426.176C354.253 426.166 354.817 428.382 354.808 432.099ZM243.19 213.923C241.864 213.124 237.514 209.45 235.888 210.008C234.505 210.483 233.037 214.867 232.211 216.244C230.638 218.869 228.976 221.443 227.345 224.03C226.303 225.684 223.524 228.672 223.999 230.908C224.252 232.099 226.566 234.155 227.735 233.794C228.941 233.422 230.927 228.755 231.596 227.835C235.219 222.858 239.77 219.113 243.19 213.923ZM665.092 219.313C669.735 228.78 670.332 239.484 672.848 249.644C673.434 252.008 674.336 254.342 674.833 256.721C675.11 258.046 674.6 260.317 675.313 261.444C677.099 264.269 685.359 263.372 687.141 260.886C688.188 259.426 687.375 257.911 686.929 256.395C686.328 254.347 686.616 252.565 686.267 250.521C685.569 246.425 682.021 242.291 680.337 238.511C678.499 234.381 677.653 229.413 675.019 225.724C673.256 223.256 668.311 218.162 665.092 219.313ZM362.328 588.59C368.541 587.74 378.314 585.818 377.988 577.133C377.664 568.5 366.783 566.967 360.726 566.211C358.951 565.989 358.758 565.883 356.956 567.002C355.717 567.771 354.484 568.593 353.329 569.49C351.079 571.236 348.532 573.615 348.052 576.663C346.833 584.403 356.876 587.903 362.328 588.59ZM326.815 98.1805C329.634 98.4908 325.884 95.6414 325.173 95.2964C323.017 94.2491 320.62 94.4393 318.33 94.8373C312.79 95.8006 307.885 100.639 303.151 103.631C298.137 106.798 293.189 110.379 287.961 113.144C285.571 114.408 283.595 115.482 281.609 117.368C280.597 118.329 280.246 118.996 278.885 118.996C278.131 118.996 276.448 117.161 275.645 118.223C273.403 121.185 284.701 122.143 285.88 121.942C291.77 120.94 296.88 118.615 301.935 115.462C307.095 112.245 312.576 109.632 317.763 106.499C320.004 105.145 321.924 103.349 323.969 101.74C324.261 101.509 324.79 100.732 325.086 100.437C325.562 100.582 325.96 100.454 326.28 100.053C326.446 99.4246 326.624 98.8003 326.815 98.1805ZM440.769 561.644C435.039 563.759 425.673 565.406 422.985 572.397C419.94 580.317 433.627 585.963 438.997 586.393C444.64 586.844 454.668 584.468 455.455 577.17C455.906 572.969 452.705 570.289 449.713 568.193C446.655 566.051 442.29 565.591 440.769 561.644ZM74.1567 120.577C70.1067 121.061 67.3541 121.477 64.1279 124.21C61.451 126.48 59.2455 128.772 58.1548 132.272C55.6329 140.362 61.8658 147.307 69.8724 146.365C70.7551 146.262 71.6172 145.922 72.5132 146.015C73.3364 146.102 73.9118 146.716 74.6076 146.839C76.2476 147.129 76.5654 146.83 77.9109 145.502C80.6558 142.794 83.4105 139.818 84.9309 136.163C88.5923 127.36 83.0864 120.735 74.1567 120.577ZM166.235 103.718C166.629 94.6073 153.296 93.1104 147.148 93.8032C140.168 94.5904 128.715 101.962 131.374 111.006C133.714 118.967 146.914 118.36 152.62 116.742C153.84 116.396 155.737 115.644 156.938 115.899C158.742 116.279 158.83 117.824 160.53 116.426C161.599 115.546 162.564 112.987 163.318 111.726C164.822 109.213 165.599 106.594 166.235 103.718ZM353.633 477.851C353.449 479.801 352.733 482.31 354.752 483.238C355.999 483.812 359.461 483.183 360.714 483.229C365.945 483.423 371.313 482.991 376.511 483.423C378.049 483.551 382.643 485.173 384.011 484.085C385.348 483.022 384.304 479.695 384.215 478.206C383.851 472.13 384.634 466.223 384.885 460.18C384.953 458.557 385.597 454.614 384.401 453.412C382.944 451.948 379.712 452.795 377.977 452.978C372.561 453.548 366.99 454.383 361.546 454.396C360.052 454.399 356.744 453.296 355.448 453.878C353.457 454.77 353.926 457.887 353.816 459.876C353.483 465.874 353.262 471.847 353.633 477.851ZM231.886 205.832C224.786 200.361 217.426 195.173 210.326 189.853C207.798 187.96 205.919 185.256 203.55 183.407C202.064 182.246 201.611 181.742 199.58 182.862C197.233 184.157 195.052 186.191 192.887 187.798C191.068 189.147 189.242 190.484 187.421 191.828C185.734 193.073 185.169 193.356 186.364 195.423C188.468 199.06 192.836 202.343 195.692 205.335C202.741 212.718 209.626 220.355 217.544 226.733C220.267 218.472 225.899 211.755 231.886 205.832ZM311.478 78.3182C299.152 73.2525 298.217 56.1003 293.907 45.1671C292.572 52.6517 296.113 64.8157 290.134 70.6935C286.457 74.308 284.327 69.207 282.353 66.4305C279.346 62.2029 276.118 58.161 273.248 53.8258C274.13 59.0558 276.655 64.9255 276.183 70.244C275.812 74.4193 273.246 80.1386 269.512 75.4039C266.947 72.1521 263.665 69.1104 260.674 66.2264C257.079 62.7594 252.978 60.5195 249.07 57.5626C250.583 65.384 253.467 72.3268 257.72 78.9461C259.901 82.3424 262.289 85.6045 264.348 89.0847C266.032 91.9297 266.826 95.4682 269.056 97.8849C271.14 100.142 274.203 101.945 276.697 103.679C280.25 106.149 281.101 105.446 284.368 103.099C290.691 98.5578 297.556 94.9213 303.919 90.4372C302.742 88.8172 300.86 87.2171 300.922 85.0119C300.971 83.2268 302.285 81.6016 304.043 81.8154C305.421 81.9827 306.058 83.484 307.591 82.9777C308.887 82.5487 310.658 79.3301 311.478 78.3182ZM735.903 214.912C730.191 215.613 724.858 217.73 719.004 217.344C716.635 217.188 714.866 217.642 713.826 215.169C712.995 213.193 713.846 210.19 711.235 209.652C709.3 209.254 706.906 211.123 705.475 212.181C702.905 214.082 700.628 215.769 697.718 217.112C692.56 219.492 687.324 221.561 681.685 221.821C683.05 226.13 684.486 230.445 686.375 234.54C688.186 238.466 689.967 241.805 690.506 246.178C690.736 248.05 690.736 250.089 692.502 250.911C694.235 251.719 697.323 251.054 699.198 251.088C703.493 251.169 707.79 251.273 712.085 251.284C715.358 251.29 718.613 252.102 721.801 252.055C725.762 251.995 730.245 250.204 734.109 249.353C741.431 247.742 751.677 246.743 757.512 241.548C752.111 240.664 746.61 241.266 741.304 242.476C738.876 243.031 733.304 245.918 731.676 243.027C729.737 239.584 733.532 234.83 736.21 233.23C739.232 231.424 743.741 231.619 745.871 228.363C741.848 228.716 737.61 228.871 733.721 230.102C730.741 231.045 726.895 233.73 725.716 229.079C723.805 221.543 730.92 217.969 735.903 214.912ZM309.632 279.432C310.642 269.456 312.494 259.374 312.658 249.33C312.728 244.992 308.015 245.768 304.716 244.535C299.92 242.743 295.22 240.622 290.512 238.6C285.818 236.585 281.099 234.641 276.39 232.668C272.114 230.877 268.01 228.168 263.699 226.576C261.352 225.709 261.17 226.555 259.808 228.795C258.484 230.974 257.092 233.107 255.652 235.204C252.627 239.611 249.388 243.853 246.077 248.03C256.038 254.267 266.435 260.031 276.713 265.685C287.202 271.454 298.611 274.947 309.632 279.432ZM522.405 241.587C527.674 241.6 532.804 240.812 538.051 240.645C543.236 240.479 548.251 240.716 553.394 240.856C558.333 240.99 563.175 242.032 568.101 242.275C569.299 242.334 570.544 242.329 571.736 242.467C572.934 242.607 573.644 243.069 574.756 243.265C577.488 243.747 580.148 243.065 582.905 243.218C593.069 243.783 603.084 245.955 613.252 246.505C623.703 247.071 633.905 247.915 644.308 249.219C649.807 249.908 655.315 250.313 660.838 250.716C661.971 250.799 664.397 251.541 665.017 250.196C665.771 248.564 663.215 242.987 662.743 241.258C662.132 239.013 661.629 236.716 660.807 234.538C660.326 233.265 659.312 229.11 658.336 228.302C656.976 227.176 654.944 228.258 653.356 228.497C650.138 228.98 646.867 229.268 643.632 229.6C638.842 230.092 634.049 231.269 629.263 231.419C623.86 231.587 618.484 231.346 613.088 231.137C602.28 230.716 591.211 230.933 580.458 229.785C568.033 228.458 555.551 227.918 543.097 226.944C540.144 226.712 537.184 226.654 534.229 226.47C532.116 226.338 527.8 224.795 525.826 225.51C523.818 226.238 524.199 228.708 523.972 230.628C523.539 234.292 522.977 237.945 522.405 241.587ZM393.027 343.254C385.53 344.453 378.174 344.922 370.594 345.148C367.251 345.248 363.93 345.415 360.6 345.763C357.816 346.054 356.255 346.181 356.152 349.352C355.699 363.258 354.972 377.015 354.561 390.926C354.329 398.781 354.597 406.645 354.57 414.503C354.56 417.485 353.972 419.634 357.123 419.982C360.952 420.405 364.969 419.85 368.82 419.888C372.365 419.923 375.911 420.014 379.456 420.094C381.732 420.145 385.953 421.324 386.717 418.457C386.961 417.539 386.522 415.929 386.545 414.915C386.587 413.028 386.811 411.122 386.92 409.236C387.171 404.909 387.354 400.578 387.606 396.251C388.64 378.521 391.419 360.936 393.027 343.254ZM307.179 122.533C312.124 126.48 317.749 129.195 323.036 132.646C325.57 134.302 328.017 136.076 330.5 137.811C333.055 139.597 336.022 140.678 338.436 142.66C343.107 146.498 348.886 148.944 354.018 152.274C359.232 155.657 364.429 159.047 369.761 162.226C372.121 163.633 374.702 164.479 377.122 165.748C380.022 167.27 382.654 169.264 385.595 170.718C391.889 173.832 398.175 176.949 404.443 180.124C416.748 186.354 429.359 192.11 441.921 197.756C444.598 198.959 447.412 199.487 450.233 200.198C451.565 200.533 453.255 200.707 454.456 201.373C454.829 201.581 455.225 201.611 455.521 201.959C456.088 202.628 455.607 203.564 455.956 204.061C457.911 206.846 463.344 199.02 464.607 197.123C466.558 194.193 465.767 193.718 462.754 192.503C459.716 191.277 456.649 190.12 453.643 188.81C448.106 186.396 442.443 183.665 437.154 180.708C431.652 177.632 425.922 175.092 420.479 171.884C414.373 168.286 408.315 164.614 402.14 161.143C391.722 155.287 382.151 147.904 372.03 141.548C366.441 138.039 361.188 133.863 355.781 130C350.503 126.229 345.502 122.019 340.113 118.496C337.149 116.558 334.066 114.946 331.296 112.707C329.225 111.035 327.159 109.319 324.564 110.723C321.76 112.24 319.112 114.79 316.389 116.552C313.315 118.54 310.248 120.538 307.179 122.533ZM536.758 187.797C535.154 186.923 529.26 184.59 532.027 181.733C533.996 179.699 538.652 182.401 540.56 183.074C540.52 180.262 540.524 178.323 539.655 175.643C538.78 172.949 539.023 170.912 541.153 168.87C542.127 167.936 545.661 167.131 546.071 165.906C546.708 164.003 543.538 164.606 542.456 164.34C536.738 162.934 537.084 156.699 536.942 151.926C536.774 146.315 535.512 140.919 531.343 137.271C529.459 135.624 528.78 135.621 526.46 136.703C525.605 137.102 524.835 137.743 523.891 137.92C522.557 138.17 521.663 137.265 520.475 137.326C518.636 137.421 516.758 140.586 514.967 141.598C512.648 142.908 510.365 142.517 508.074 143.454C506.035 144.288 504.065 146.549 502.164 147.752C499.575 149.39 500.164 150.997 500.33 154.215C500.468 156.9 500.385 158.661 497.847 159.657C497.029 159.978 495.589 159.834 494.893 160.351C493.863 161.114 494.421 161.687 494.09 162.963C493.25 166.191 491.47 164.221 489.198 163.79C486.431 163.264 483.383 165.295 484.828 168.384C485.345 169.49 486.456 170.497 487.567 170.841C488.881 171.247 490.521 170.128 491.734 170.633C494.825 171.922 492.354 174.975 492.502 177.056C494.378 175.996 495.016 172.961 496.956 176.326C498.357 178.758 497.799 182.453 497.451 185.108C496.644 191.252 494.833 198.779 490.991 203.707C490.438 204.417 489.611 205.75 488.571 205.582C487.705 205.443 487.602 204.276 486.854 203.977C485.249 203.334 482.792 204.286 482.178 205.832C481.139 208.444 481.248 212.275 481.165 215.04C481.071 218.222 480.712 221.821 481.453 224.943C482.72 230.274 487.489 232.13 492.126 233.307C494.711 233.963 497.544 234.728 500.16 233.806C503.014 232.801 504.975 230.104 506.987 227.928C508.5 226.292 511.435 224.429 511.631 222.062C511.724 220.955 510.967 219.428 510.794 218.293C510.52 216.493 510.443 214.673 510.489 212.851C510.573 209.504 511.473 206.102 511.199 202.755C510.916 199.332 508.47 199.085 507.137 196.448C506.343 194.875 506.157 192.425 508.088 191.89C509.21 191.579 511.311 192.465 512.527 192.555C514.381 192.692 516.26 192.722 518.119 192.741C521.545 192.777 524.128 192.594 527.229 191.042C530.421 189.446 533.272 188.45 536.758 187.797ZM457.31 562.88C457.439 559.961 457.829 557.043 458.698 554.257C459.437 551.889 461.022 549.816 461.289 547.37C461.845 542.264 460.218 537.466 455.486 535.624C450.898 533.838 445.928 533.867 441.137 534.202C438.356 534.396 435.999 533.406 433.269 533.537C430.396 533.675 427.86 533.265 425.007 532.95C419.707 532.364 415.191 529.937 410.044 528.911C407.526 528.408 406.655 529.526 405.114 531.37C403.416 533.401 401.504 535.108 399.352 536.6C396.045 538.893 390.13 543.105 389.814 535.997C389.549 530.032 395.294 525.612 398.84 521.748C395.247 520.16 395.554 514.261 391.379 516.635C389.568 517.665 388.137 519.189 386.463 520.424C385.055 521.464 381.822 524.36 379.969 524.134C377.354 523.816 377.075 519.951 377.467 517.806C378.178 513.911 382.092 511.668 384.871 509.38C386.55 507.997 389.061 506.909 390.488 505.286C392.005 503.56 391.668 501.626 391.617 499.457C391.594 498.471 392.305 494.753 391.919 493.901C391.324 492.587 389.262 492.935 387.793 492.799C385.067 492.546 382.361 492.048 379.645 491.78C377.516 491.571 375.47 492.071 373.34 492.152C367.958 492.357 362.515 492.066 357.126 492.049C356.149 492.047 352.052 491.318 351.371 492.198C350.784 492.957 351.343 496.472 351.34 497.38C351.322 503.021 351.34 508.654 351.502 514.292C351.82 525.418 351.462 536.841 349.266 547.777C348.868 549.758 347.616 551.953 349.546 552.928C351.031 553.679 354.995 552.513 356.614 552.403C361.866 552.045 367.175 552.398 372.398 552C381.491 551.309 390.896 551.944 400.17 552.169C412.509 552.468 424.779 553.856 437.114 554.184C442.476 554.327 447.929 553.309 453.221 553.477C455.301 553.544 455.89 554.091 456.007 556.41C456.146 559.166 454.995 560.644 457.31 562.88ZM198.399 169.452C193.66 161.125 189.192 152.632 184.458 144.303C182.319 140.541 179.917 136.965 177.53 133.372C176.307 131.532 174.955 129.672 174.02 127.646C173.162 125.79 172.908 123.656 171.899 121.875C169.991 126.263 165.895 128.67 161.608 130.241C158.277 131.461 155.028 133.209 151.553 133.962C142.464 135.934 133.473 140.183 124.554 143.264C105.615 149.804 85.3718 153.395 67.1382 161.893C73.3598 168.299 71.4268 181.958 81.8081 184.023C85.9381 184.846 90.2514 183.524 94.2045 182.391C99.1959 180.96 104.191 179.541 109.187 178.126C114.608 176.589 120.084 175.396 125.549 174.055C128.294 173.381 131.057 172.914 133.807 172.307C136.098 171.801 136.126 171.306 137.327 169.061C139.356 165.266 143.123 161.384 146.308 166.391C147.604 168.43 147.33 170.99 148.467 173.011C149.438 174.737 151.514 175.632 152.973 176.799C153.986 173.824 155.196 169.796 157.434 167.511C159.876 165.018 162.301 167.024 163.18 169.953C164.236 173.474 162.68 177.759 161.999 181.223C161.666 182.916 161.035 184.861 161.417 186.598C161.925 188.906 163.858 191.285 165.01 193.287C175.774 184.942 186.771 176.419 198.399 169.452ZM408.837 309.658C405.686 305.214 402.353 301.276 399.988 296.297C397.459 290.976 395.414 285.245 392.717 280.059C390.038 274.909 387.573 269.662 385.128 264.374C383.421 260.684 381.479 251.824 376.591 252.046C374.15 252.157 371.659 253.072 369.204 253.322C366.326 253.617 363.434 253.6 360.559 253.966C354.252 254.768 348.112 256.203 341.746 256.592C336.277 256.926 330.736 257.097 325.259 256.849C323.767 256.782 319.882 255.572 318.499 256.265C316.886 257.073 317.424 260.224 317.288 261.836C316.774 267.902 315.986 273.972 315.1 279.988C314.948 281.014 313.424 286.141 314.106 287.008C315.158 288.345 319.679 287.451 321.154 287.569C326.97 288.035 332.686 289.417 338.48 290.085C341.419 290.424 344.362 290.503 347.317 290.514C350.188 290.524 354.376 289.7 357.099 290.723C358.85 291.381 359.844 292.929 359.279 294.9C358.656 297.074 356.629 297.56 354.749 297.967C353.371 298.264 349.374 298.098 348.506 299.416C347.567 300.843 349.212 303.532 349.676 304.885C350.565 307.479 350.06 308.593 349.994 311.13C349.924 313.8 351.411 316.15 351.213 318.85C351.019 321.49 350.914 323.597 351.161 326.288C351.378 328.652 351.227 331.241 351.546 333.538C352.284 338.853 363.332 335.638 366.761 335.558C373.848 335.393 380.963 336.586 388.023 336.233C390.1 336.129 394.916 336.521 396.381 334.686C397.866 332.828 398.101 328.588 399.059 326.289C401.559 320.28 405.286 315.013 408.837 309.658ZM471.941 191.364C471.424 197.53 471.137 202.28 467.586 207.469C463.796 213.01 459.437 212.513 453.452 213.123C448.081 213.67 443.866 215.516 439.551 218.82C434.477 222.704 429.003 225.93 423.596 229.274C413.309 235.636 401.039 237.395 389.357 239.285C386.42 239.762 380.998 241.129 384.454 244.75C388.17 248.643 390.251 254.387 392.747 259.258C398.47 270.424 402.857 282.42 409.385 293.115C412.023 297.435 415.178 302.649 419.226 305.7C423.068 308.595 430.782 303.218 434.693 301.439C439.777 299.128 445.112 297.374 449.902 294.522C454.37 291.861 458.916 289.566 463.612 287.375C468.223 285.224 472.688 283.083 477.517 281.513C483.2 279.665 489.204 279.01 494.976 277.4C500.897 275.75 505.571 274 510.357 269.918C512.58 268.022 515.29 266.125 516.186 263.127C517.103 260.06 516.427 256.149 516.289 253.005C516.143 249.717 515.652 246.351 515.716 243.063C515.781 239.749 517.343 237.148 518.287 234.068C519.777 229.208 521.471 220.397 516.755 217.124C516.422 222.316 514.662 226.975 513.014 231.845C511.425 236.536 508.818 239.406 504.919 242.141C503.436 243.181 501.832 244.63 500.076 245.103C498.214 245.605 495.608 245.348 493.672 245.369C489.318 245.417 484.6 244.23 481.247 241.177C474.458 234.997 472.977 223.919 473.632 215.132C474.01 210.078 474.811 204.987 477.038 200.427C477.803 198.859 479.327 197.186 478.476 195.35C477.587 193.428 473.604 192.264 471.941 191.364ZM338.004 299.045C329.997 297.958 321.659 297.073 313.882 294.722C311.052 293.866 307.639 292.784 307.609 289.254C307.599 288.171 308.379 286.214 307.931 285.195C307.47 284.151 304.603 284.08 303.277 283.806C287.852 280.624 273.524 274.404 259.755 266.616C245.828 258.738 232.964 249.443 219.823 240.262C207.002 231.306 196.349 220.367 185.692 208.864C184.212 207.267 182.693 205.709 181.164 204.161C180.049 203.032 178.499 200.73 177.033 200.117C174.397 199.015 170.712 203.191 168.381 204.434C165.35 206.051 161.734 206.296 159.733 202.888C158.411 200.636 159.64 200.225 159.829 198.107C159.985 196.365 158.839 195.377 157.831 194.165C157.054 196.074 156.02 199.566 153.374 199.132C150.996 198.743 150.734 195.333 150.565 193.389C150.368 191.123 151.047 188.244 149.572 186.409C148.412 184.966 146.146 183.911 144.661 185.219C141.674 187.849 143.611 195.681 139.395 197.633C133.451 200.386 134.031 187.827 133.905 185.317C120.598 186.848 108.09 192.894 94.7679 194.873C89.3461 195.678 83.0835 195.414 78.3519 192.194C74.001 189.235 69.4824 182.723 67.6223 177.726C63.1596 181.167 58.4938 183.805 52.7635 182.27C46.9383 180.709 41.8138 177.347 39.6734 171.257C37.5245 165.144 38.146 160.489 43.5104 157.039C45.7053 155.627 47.4408 154.936 49.8565 154.254C52.5313 153.499 55.9196 152.952 58.445 151.757C55.841 147.8 52.8788 143.923 51.6954 139.194C50.3605 133.861 51.0265 127.861 53.0968 122.818C56.839 113.704 67.3583 107.606 76.8336 109.688C85.1029 111.506 90.9543 118.952 93.3027 127.096C94.3701 130.799 93.433 133.089 97.7874 131.086C102.732 128.811 107.06 125.463 112.167 123.456C116.598 121.713 121.43 120.249 125.535 117.748C127.66 116.454 127.56 116.342 126.694 113.967C125.618 111.017 124.953 108.27 125.193 105.064C125.879 95.8839 133.184 89.3766 141.001 86.3562C149.862 82.932 160.851 84.2844 167.492 91.6842C170.718 95.2795 172.92 100.005 173.201 104.952C173.327 107.144 172.07 110.478 172.771 112.5C173.381 114.259 176.268 115.608 177.382 117.29C179.149 119.959 179.968 123.154 181.721 125.869C183.242 128.22 184.782 130.552 186.243 132.946C189.792 138.756 193.118 144.709 196.019 150.899C197.346 153.731 198.592 156.603 199.808 159.488C200.643 161.467 201.332 165.082 202.833 166.659C204.35 168.252 206.612 167.742 207.914 169.76C209.555 172.299 207.996 174.545 206.696 176.758C216.582 179.77 222.653 188.477 230.564 194.859C238.551 201.299 247.317 206.877 255.903 212.399C264.84 218.148 273.614 223.627 283.343 227.805C292.409 231.698 301.172 236.286 310.214 240.228C311.481 240.781 312.468 241.514 313.722 240.656C314.881 239.861 315.114 237.3 316.326 236.262C319.395 233.632 326.616 235.092 330.27 235.032C335.54 234.947 340.885 234.637 346.15 234.92C347.933 235.015 349.655 235.754 351.402 235.51C354.078 235.135 356.577 234.566 359.362 234.449C361.681 234.351 363.995 234.173 366.317 234.259C367.418 234.3 369.281 234.792 370.268 234.012C371.5 233.041 370.757 230.711 371.599 229.298C372.144 228.383 373.223 228.132 373.751 227.41C373.683 227.502 374.592 225.871 374.34 226.079C375.963 224.747 380.503 224.344 382.421 224.818C382.974 224.955 383.065 225.925 383.762 225.927C384.457 225.93 384.51 225.2 385.001 225.025C385.51 224.843 385.646 224.11 386.327 223.999C387.08 223.875 388.044 224.756 388.86 224.805C389.778 224.859 390.654 224.226 391.508 223.979C392.644 223.652 393.52 223.893 394.466 223.776C396.19 223.563 398.045 223.361 399.836 223.143C402.442 222.826 404.981 221.98 407.523 221.336C408.637 221.054 409.751 220.725 410.901 220.635C412.228 220.529 413.955 221.18 415.207 220.872C416.279 220.61 415.406 220.212 416.334 219.877C417.338 219.515 418.423 219.416 419.441 219.049C421.779 218.208 423.936 216.809 426.037 215.476C430.929 212.369 435.307 208.498 440.143 205.308C439.039 203.637 434.928 203.354 433.189 202.762C430.796 201.949 428.447 200.996 426.106 200.035C420.783 197.849 415.499 195.557 410.218 193.268C400.198 188.926 390.121 184.737 380.545 179.41C371.55 174.406 361.943 170.506 353.023 165.323C348.485 162.687 343.943 159.911 339.531 157.052C335.421 154.388 330.999 152.571 326.742 150.135C318.425 145.376 310.786 139.456 302.438 134.798C300.466 133.698 298.277 131.369 296.149 130.771C294.32 130.256 292.465 131.317 290.812 132.062C289.061 132.85 287.418 134.145 285.454 134.189C283.29 134.238 280.813 133.025 278.772 132.29C274.978 130.925 271.683 127.141 270.303 123.201C269.629 121.275 269.317 119.134 269.068 117.107C268.773 114.705 269.553 111.881 268.99 109.596C267.92 105.251 262.977 101.171 260.213 98.0537C256.781 94.1835 253.806 89.852 251.096 85.4121C245.04 75.4865 240.837 63.7131 244.214 52.0304C244.728 50.2497 245.646 47.3075 247.161 46.1223C249.264 44.4758 250.164 46.3972 251.983 47.3517C254.242 48.5376 256.386 49.2282 258.504 50.8393C261.071 52.7917 263.183 55.1731 265.55 57.3569C265.562 52.3142 264.808 47.8934 265.854 42.8433C266.391 40.2511 267.593 34.859 270.763 34.3969C274.052 33.9171 276.41 40.117 277.841 42.3789C280.503 46.5822 283.476 50.5261 286.437 54.5009C286.821 48.3342 286.034 33.6738 293.488 31.2483C300.166 29.074 303.619 47.7954 305.236 51.9847C306.745 55.8932 308.863 59.7545 311.156 63.2267C313.558 66.8647 316.176 65.011 319.897 65.182C323.338 65.3405 324.885 67.8162 324.847 71.3259C324.799 75.7665 321.406 79.0102 319.059 82.3608C324.139 84.9153 330.717 88.2379 333.751 93.4981C334.424 94.6633 334.887 96.0011 334.929 97.3764C334.969 98.7362 333.773 101.226 334.394 102.483C334.847 103.402 336.379 103.735 337.195 104.235C338.881 105.271 340.379 106.61 342.046 107.683C352.97 114.717 363.241 123.122 373.779 130.549C383.296 137.255 393.375 143.229 403 149.931C415.239 158.452 428.107 165.702 441.208 172.708C444.23 174.324 447.032 176.119 449.932 177.928C452.908 179.784 456.46 181.038 459.636 182.541C461.862 183.593 464.29 185.596 466.626 186.252C469.406 187.033 470.577 183.965 473.816 184.76C476.611 185.447 479.657 185.75 481.336 188.367C482.808 190.661 482.67 194.171 485.04 195.654C487.788 197.373 488.558 195.53 489.193 193.143C489.915 190.427 491.956 187.321 489.452 185.366C487.086 183.519 483.735 183.315 480.967 182.632C479.564 182.286 477.704 181.024 476.369 180.909C474.7 180.766 474.31 182.384 472.892 182.386C472.138 182.386 471.475 181.628 470.757 181.387C470.594 181.333 470.169 181.951 469.974 181.894C469.272 181.689 469.215 181.445 468.53 181.153C466.089 180.11 462.86 178.465 463.597 175.296C463.992 173.595 466.67 170.86 464.801 169.3C463.044 167.834 460.686 170.892 459.718 167.832C459.03 165.658 460.707 165.075 458.575 163.286C457.007 161.971 455.563 161.613 456.431 159.201C456.988 157.647 459.892 155.285 459.059 153.412C457.881 150.76 453.398 153.441 453.83 148.651C454.139 145.22 458.286 142.744 458.313 139.368C458.333 136.952 456.131 136.969 455.558 135.399C454.992 133.848 455.509 133.854 456.335 132.764C456.948 131.955 457.346 131.686 457.804 130.732C458.361 129.573 459.323 128.072 458.962 126.723C458.637 125.51 457.272 124.79 456.93 123.447C455.636 118.387 465.91 106.892 468.528 113.858C470.471 111.519 473.019 106.623 476.454 107.015C478.53 107.253 477.643 107.869 478.364 109.117C478.887 110.022 480.338 110.482 480.749 111.462C481.563 108.832 480.7 103.959 482.963 102.029C485.168 100.148 486.554 103.458 487.492 105.299C488.095 103.562 488.483 100.302 490.565 99.6781C492.792 99.0126 494.183 101.911 495.268 103.388C496.436 101.66 498.628 96.5686 501.152 97.1891C503.045 97.6542 503.982 100.942 504.867 102.46C506.939 101.045 510.203 97.6365 512.885 97.9969C515.497 98.347 515.267 100.894 518.321 99.8521C520.536 99.0959 522.839 97.0874 525.19 96.9371C527.669 96.7786 528.979 98.5858 531.732 98.1473C534.654 97.6822 535.101 96.9747 537.005 99.4563C537.946 100.681 537.697 101.219 539.328 101.475C540.708 101.692 541.917 100.744 543.363 101.342C544.434 101.783 545.181 102.814 545.629 103.874C546.159 105.126 545.546 107.295 546.074 108.279C547.09 110.173 550.932 108.502 552.657 109.817C554.983 111.593 552.793 114.288 554.031 116.255C555.026 117.835 557.828 117.433 558.943 119.564C559.954 121.494 559.717 124.046 558.544 125.835C558.052 126.586 556.667 127.209 556.343 127.89C555.674 129.293 556.235 129.129 556.624 130.563C557.369 133.307 556.773 134.342 554.741 136.218C553.565 137.304 553.319 136.992 553.241 138.641C553.181 139.914 554.222 141.094 554.029 142.519C553.714 144.833 551.526 146.287 550.867 148.563C550.018 151.491 547.699 153.093 545.952 155.503C548.018 156.8 550.733 157.874 551.735 160.308C552.829 162.963 552.627 166.742 551.851 169.435C551.107 172.016 549.515 173.663 547.983 175.711C546.119 178.205 546.278 180.183 546.163 183.227C545.919 189.662 543.264 195.506 537.196 197.549C534.79 198.36 532.616 199.553 530.174 200.309C527.187 201.234 525.002 201.309 521.904 201.126C519.966 201.013 517.699 200.578 517.025 202.712C516.688 203.78 516.811 207.934 517.271 208.881C518.058 210.504 520.288 210.289 521.633 211.692C524.056 214.223 523.371 216.381 527.461 216.44C540.712 216.632 553.922 215.568 567.172 216.566C573.707 217.058 580.102 218.233 586.662 218.579C593.883 218.958 601.122 219.085 608.337 219.541C615.148 219.971 621.812 220.899 628.658 220.532C635.053 220.19 641.194 219.733 647.562 218.999C649.741 218.747 653.116 219.108 654.655 217.376C655.508 216.415 655.705 214.768 656.556 213.71C657.343 212.734 658.409 212.027 659.375 211.265C661.715 209.417 663.922 207.755 667.01 207.816C669.715 207.87 671.872 209.903 674.078 211.398C676.637 213.133 677.697 213.931 680.73 213.258C683.756 212.588 686.53 211.345 689.48 210.431C695.705 208.504 701.538 205.731 707.209 202.443C710.002 200.823 711.97 199.735 715.186 200.71C718.484 201.709 719.422 202.693 719.461 206.255C719.473 207.386 719.059 209.396 720.309 210.049C721.215 210.523 723.212 209.201 723.982 208.853C727.384 207.317 730.724 205.718 734.281 204.597C737.526 203.573 740.812 202.665 744.071 201.688C746.797 200.87 750.433 199.685 753.149 201.208C760.011 205.054 749.914 214.826 747.292 218.077C750.561 217.262 757.58 217.727 759.3 221.378C761.336 225.698 757.255 229.983 754.952 233.123C758.177 234.651 764.689 233.337 765.598 238.147C766.362 242.186 762.323 246.253 759.691 248.616C752.877 254.73 742.311 259.011 733.314 259.092C731.03 259.112 728.806 258.65 726.535 258.537C724.873 258.455 723.374 259.053 721.76 259.055C719.484 259.058 717.466 258.593 715.119 258.927C712.414 259.311 709.731 259.784 707.013 260.102C704.492 260.397 701.969 260.666 699.44 260.871C697.773 261.007 695.258 260.624 693.709 261.206C691.705 261.96 692.29 262.713 692.127 264.718C691.926 267.181 690.727 269.407 688.983 271.049C682.646 277.014 671.855 275.582 668.67 266.825C667.895 264.695 668.924 263.582 668.632 261.663C668.338 259.731 666.611 259.796 664.919 259.666C659.77 259.269 654.554 259.233 649.383 258.862C639.373 258.145 629.062 256.684 619.057 256.932C608.616 257.191 598.108 256.537 587.677 255.948C582.81 255.673 577.767 253.897 572.977 254.28C567.889 254.686 562.485 253.546 557.369 252.994C545.935 251.757 533.171 251.399 522.604 246.457C523.44 258.372 524.828 270.468 515.533 279.354C511.638 283.078 506.744 287.343 501.637 288.931C495.055 290.977 488.745 292.673 482.046 294.191C469.59 297.015 457.214 303.772 445.976 309.842C440.691 312.698 434.488 313.811 428.758 315.411C426.028 316.173 422.954 317.179 420.091 317.073C417.271 316.968 415.313 314.974 412.823 313.784C410.441 319.621 407.225 324.966 404.828 330.727C403.639 333.585 402.701 336.624 401.316 339.389C400.26 341.496 398.551 342.629 398.39 345.072C397.997 351.003 399.04 357.191 398.76 363.19C398.455 369.732 397.478 376.372 396.902 382.922C395.656 397.078 396.237 411.33 395.226 425.505C394.303 438.454 394.88 451.303 393.499 464.264C393.116 467.862 392.69 471.455 392.414 475.065C392.232 477.433 390.972 482.885 392.159 485.008C392.678 485.936 393.925 486.035 394.759 486.5C396.059 487.226 397.243 488.336 398.215 489.492C400.268 491.932 400.759 494.836 401.226 497.944C403.884 496.458 415.022 488.829 413.354 497.184C412.837 499.776 410.577 501.172 408.794 502.826C407.487 504.037 406.24 505.323 404.85 506.433C403.912 507.182 401.924 508.111 401.471 509.334C400.664 511.521 404.839 514.643 406.81 514.619C409.578 514.586 413.033 510.265 415.379 508.888C421.605 505.231 421.042 513.129 418.695 516.561C416.924 519.152 418.422 518.953 420.857 519.478C424.665 520.301 428.181 521.002 432.051 521.504C439.448 522.465 446.726 521.225 454.066 523.001C461.374 524.771 465.719 529.514 466.784 537.335C467.346 541.467 467.874 539.393 471.21 540.362C474.291 541.257 476.03 544.921 477.803 547.405C481.342 552.362 487.96 564.849 482.539 570.694C480.237 573.175 474.647 572.545 471.617 572.969C469.668 573.241 467.322 574.187 465.355 573.697C463.485 573.232 462.241 571.492 460.892 570.216C460.874 578.061 460.829 584.876 454.852 590.54C450.03 595.112 443.581 597.21 437.115 596.747C430.778 596.295 424.27 593.613 420.254 588.313C418.135 585.518 416.627 582.088 416.08 578.565C415.828 576.942 415.755 575.236 416 573.605C416.145 572.637 417.031 570.88 416.468 569.944C415.482 568.305 410.651 569.667 409.056 569.834C404.846 570.277 400.648 570.829 396.454 571.413C392.988 571.897 389.451 572.409 385.972 571.726C382.982 571.138 381.84 570.803 382.378 574.483C383.459 581.886 381.658 588.453 375.805 593.005C369.948 597.56 364.543 598.462 357.38 597.263C350.835 596.167 344.849 589.74 342.943 583.344C340.405 574.833 343.021 567.079 349.132 561.269C345.426 559.316 342.967 558.162 341.66 553.651C340.293 548.935 341.571 543.976 342.217 539.247C343.605 529.092 343.064 519.208 343.541 509.02C343.751 504.525 344.643 499.95 344.658 495.466C344.665 492.91 344.529 493.002 342 492.981C340.431 492.969 338.767 493.083 338.107 491.181C336.512 486.592 343.995 486.98 345.877 485.153C348.122 482.976 346.571 474.384 346.506 471.361C346.293 461.54 347.226 451.948 347.409 442.153C347.492 437.729 347.751 433.077 347.4 428.668C347.259 426.908 346.291 425.486 346.356 423.735C346.438 421.492 346.853 419.396 346.742 417.063C345.766 396.538 345.552 375.634 348.083 355.245C348.235 354.024 349.064 351.275 348.621 350.049C347.948 348.192 345.814 348.85 344.323 348.17C340.151 346.268 339.12 343.248 338.892 338.827C338.757 336.207 338.624 333.586 338.493 330.965C338.425 329.619 338.36 328.273 338.289 326.926C338.207 325.366 338.825 323.611 338.789 322.3C338.777 321.88 338.603 321.251 338.6 321.003C338.116 320.756 337.929 320.393 338.034 319.914C338.012 319.464 338.081 319.024 338.241 318.598C338.267 318.853 337.951 317.152 337.924 317.303C337.967 317.07 338.786 315.691 338.704 315.523C338.321 314.743 337.512 315.691 337.241 314.237C337.015 313.015 337.78 311.579 337.524 310.149C336.838 306.332 337.485 302.908 338.004 299.045Z" fill="black"/>
<path fill-rule="evenodd" clip-rule="evenodd" d="M206.285 438.001C239.083 439.471 271.903 440.478 304.704 441.84C306.83 441.929 311.357 441.276 312.155 443.99C312.986 446.811 309.527 449.642 307.239 450.374C304.267 451.324 300.484 450.792 297.382 450.883C293.209 451.005 289.243 450.967 285.084 450.674C269.234 449.558 253.411 448.109 237.558 446.99C228.583 446.357 219.615 445.607 210.654 444.802C208.264 444.588 201.167 445.254 199.493 443.228C198.462 441.98 199.555 440.052 200.574 439.089C202.252 437.505 204.181 437.864 206.285 438.001Z" fill="black"/>
<path fill-rule="evenodd" clip-rule="evenodd" d="M289.429 469.992C278.771 470.588 267.994 469.71 257.517 467.879C256.09 467.629 252.79 467.601 251.878 466.222C250.485 464.117 253.103 462.279 254.864 462.093C259.744 461.578 265.547 463.349 270.471 463.661C275.622 463.988 280.843 463.417 286.007 463.375C288.959 463.35 291.91 463.329 294.862 463.319C296.594 463.314 299.083 462.858 300.793 463.266C305.577 464.41 299.493 468.6 297.362 469.083C296.623 469.251 289.454 470.356 289.429 469.992Z" fill="black"/>
<path fill-rule="evenodd" clip-rule="evenodd" d="M519.737 157.426C519.808 156.125 519.483 152.837 521.03 152.221C524.048 151.019 523.849 158.726 525.025 159.811C529.342 163.789 528.179 148.461 532.293 153.404C535.635 157.421 532.95 167.1 528.248 168.905C524.784 170.234 522.427 167.676 521.081 164.713C521.049 164.644 519.178 157.395 519.737 157.426Z" fill="black"/>
<path fill-rule="evenodd" clip-rule="evenodd" d="M523.646 139.877C525.729 139.465 528.442 141.716 527.166 143.896C526.233 145.491 519.909 147.962 518.196 148.004C516.093 148.056 516.271 146.316 516.943 144.544C517.993 141.772 520.797 139.846 523.646 139.877Z" fill="black"/>
<path fill-rule="evenodd" clip-rule="evenodd" d="M143.859 104.954C144.5 102.181 145.445 98.8952 148.6 101.569C150.72 103.365 152.27 107.794 152.482 110.565C152.737 113.882 150.986 115.569 148.156 113.708C145.285 111.82 144.189 108.339 143.859 104.954Z" fill="black"/>
<path fill-rule="evenodd" clip-rule="evenodd" d="M75.4658 139.831C74.4391 147.247 68.1151 140.345 68.4 135.821C68.5479 133.466 69.8442 131.536 72.3063 132.949C74.5105 134.214 75.2778 137.54 75.4658 139.831Z" fill="black"/>
<path fill-rule="evenodd" clip-rule="evenodd" d="M435.516 573.286C435.986 571.445 436.089 567.655 438.136 566.847C441.166 565.652 442.48 570.889 442.581 572.997C442.69 575.281 441.923 580.135 438.779 579.732C436.201 579.401 436.03 575.286 435.516 573.286Z" fill="black"/>
<path fill-rule="evenodd" clip-rule="evenodd" d="M359.262 576.225C359.841 573.971 359.954 569.899 362.557 569.216C365.423 568.465 366.301 572.53 366.336 574.829C366.369 576.976 365.214 582.538 362.292 582.193C360.042 581.928 359.743 578.046 359.262 576.225Z" fill="black"/>
</svg>
