<svg width="81" height="22" viewBox="0 0 81 22" fill="none" xmlns="http://www.w3.org/2000/svg">
<path d="M10.7967 0.711914C8.66132 0.711914 6.57388 1.33639 4.79835 2.50637C3.02289 3.67641 1.63906 5.3394 0.82183 7.28501C0.00466701 9.23068 -0.209139 11.3716 0.207482 13.4371C0.62404 15.5026 1.65231 17.3998 3.16227 18.889C4.67223 20.3781 6.59605 21.3922 8.6904 21.8031C10.7847 22.2139 12.9556 22.0031 14.9284 21.1971C16.9013 20.3912 18.5875 19.0265 19.7738 17.2754C20.9602 15.5244 21.5934 13.4658 21.5934 11.3598C21.5934 8.53578 20.4559 5.82747 18.4312 3.83063C16.4063 1.83372 13.6602 0.711914 10.7967 0.711914ZM15.7513 16.0676C15.7054 16.1429 15.6447 16.2084 15.5729 16.2603C15.501 16.3122 15.4195 16.3495 15.3328 16.3701C15.2463 16.3906 15.1564 16.394 15.0685 16.38C14.9805 16.366 14.8963 16.335 14.8207 16.2886C12.2874 14.759 9.09923 14.419 5.34236 15.2603C5.25687 15.2805 5.16825 15.2836 5.08151 15.2696C4.99483 15.2557 4.91173 15.2249 4.83723 15.1791C4.76268 15.1332 4.69811 15.0733 4.64723 15.0026C4.59635 14.9319 4.5603 14.852 4.54102 14.7675C4.52048 14.6827 4.51721 14.5947 4.53122 14.5086C4.54529 14.4225 4.57638 14.34 4.6228 14.2658C4.66922 14.1916 4.73008 14.1272 4.80174 14.0762C4.87347 14.0252 4.95469 13.9886 5.04074 13.9686C9.15092 13.0424 12.6838 13.4418 15.5273 15.1584C15.679 15.2498 15.7878 15.3969 15.8297 15.5673C15.8718 15.7378 15.8436 15.9177 15.7513 16.0676ZM17.0697 13.1698C16.9493 13.3525 16.7623 13.4826 16.5474 13.5332C16.3325 13.5838 16.1062 13.5511 15.915 13.4418C12.6388 11.6394 8.77105 11.1932 5.1614 12.2011C5.04909 12.2629 4.92416 12.299 4.79584 12.307C4.66746 12.3149 4.53895 12.2944 4.41967 12.247C4.30039 12.1996 4.19343 12.1264 4.10656 12.0329C4.0197 11.9394 3.95512 11.8279 3.91763 11.7066C3.88013 11.5853 3.87064 11.4572 3.88986 11.3318C3.90908 11.2064 3.95651 11.0869 4.02867 10.9819C4.10084 10.8769 4.19594 10.7893 4.30693 10.7252C4.41798 10.6612 4.54209 10.6225 4.67022 10.612C6.68499 10.04 8.79535 9.87084 10.8773 10.1146C12.9593 10.3583 14.9709 11.0099 16.7939 12.0312C16.9792 12.1499 17.111 12.3343 17.1623 12.5462C17.2136 12.7581 17.1805 12.9814 17.0697 13.1698ZM17.1817 10.1531C13.735 8.11357 7.97047 7.92661 4.64441 8.92088C4.38846 8.99755 4.11209 8.97074 3.87617 8.8464C3.64026 8.72211 3.46407 8.51047 3.38638 8.25803C3.30868 8.00565 3.33582 7.73309 3.46188 7.5004C3.58787 7.26776 3.8025 7.09399 4.05845 7.01738C7.87568 5.87865 14.2089 6.0996 18.2157 8.43649C18.4217 8.58189 18.5646 8.79841 18.6161 9.04304C18.6676 9.2876 18.6238 9.54236 18.4935 9.75662C18.3631 9.97082 18.1558 10.1288 17.9128 10.1991C17.6697 10.2694 17.4087 10.2469 17.1817 10.1361V10.1531Z" fill="#1ED760"/>
<path d="M32.859 9.67182C30.7907 9.17893 30.4201 8.82208 30.4201 8.12524C30.4201 7.4284 31.0664 6.9865 32.0318 6.9865C33.0663 7.02475 34.0599 7.3981 34.8576 8.04876C34.874 8.05694 34.8915 8.06119 34.9098 8.06119C34.9273 8.06119 34.9456 8.05694 34.9613 8.04876C34.9952 8.04232 35.026 8.02426 35.0473 7.99777L36.0642 6.5871C36.0843 6.56167 36.0956 6.53024 36.0956 6.49787C36.0956 6.4655 36.0843 6.43407 36.0642 6.40864C34.9431 5.5036 33.5317 5.02159 32.0833 5.04896C29.8516 5.04896 28.2921 6.37465 28.2921 8.26121C28.2921 10.2922 29.6362 11.0145 31.9627 11.5669C33.9444 12.0173 34.2804 12.4167 34.2804 13.071C34.2804 13.7253 33.5995 14.2777 32.5569 14.2777C31.3245 14.2693 30.1437 13.7877 29.2656 12.9351C29.2323 12.924 29.1959 12.924 29.162 12.9351C29.1268 12.9434 29.0942 12.9611 29.0671 12.986L27.9127 14.3032C27.8888 14.3284 27.875 14.3619 27.875 14.3967C27.875 14.4315 27.8888 14.4649 27.9127 14.4901C29.167 15.5982 30.7957 16.2044 32.4796 16.1897C34.8834 16.1897 36.4436 14.8895 36.4436 12.8841C36.409 11.21 35.3746 10.2752 32.859 9.67182Z" fill="black"/>
<path d="M41.8559 7.65827C41.3578 7.6552 40.866 7.76474 40.4181 7.97832C39.9697 8.19189 39.5771 8.50394 39.2706 8.89048V7.9557C39.2687 7.92114 39.253 7.88871 39.2273 7.86503C39.2015 7.84135 39.1676 7.82816 39.133 7.82823H37.2632C37.228 7.82816 37.1941 7.84135 37.1683 7.86503C37.1426 7.88871 37.1275 7.92114 37.125 7.9557V18.3232C37.125 18.3592 37.1394 18.3938 37.1652 18.4193C37.1916 18.4448 37.2261 18.4591 37.2632 18.4591H39.1155C39.1519 18.4591 39.1871 18.4448 39.2128 18.4193C39.2386 18.3938 39.2536 18.3592 39.2536 18.3232V15.0685C39.5702 15.4388 39.9665 15.7353 40.4137 15.9365C40.8603 16.1379 41.3471 16.239 41.8383 16.2326C43.7772 16.2326 45.7419 14.7625 45.7419 11.9412C45.7419 9.11992 43.7942 7.65827 41.8559 7.65827ZM43.5788 11.9072C43.6114 12.2111 43.5794 12.5183 43.4852 12.8094C43.391 13.1004 43.2364 13.3691 43.0317 13.5983C42.8263 13.8275 42.5757 14.0122 42.2949 14.141C42.0135 14.2697 41.7089 14.3396 41.3992 14.3461C41.0883 14.3366 40.7831 14.2652 40.5011 14.1362C40.219 14.0071 39.9665 13.8231 39.7593 13.5951C39.5514 13.3672 39.3925 13.1001 39.292 12.8101C39.1921 12.5199 39.1525 12.2128 39.1758 11.9072C39.1538 11.6023 39.194 11.2961 39.2951 11.007C39.3956 10.7179 39.5545 10.4519 39.7624 10.2249C39.9697 9.99791 40.2222 9.81464 40.5029 9.68604C40.7843 9.55751 41.089 9.48634 41.3992 9.47684C41.7127 9.48215 42.0217 9.55182 42.3062 9.68142C42.5908 9.81101 42.8451 9.99766 43.0524 10.2295C43.2603 10.4614 43.4167 10.7333 43.5116 11.028C43.6064 11.3227 43.6384 11.6337 43.6045 11.9412L43.5788 11.9072Z" fill="black"/>
<path d="M50.7902 7.65777C49.9291 7.67295 49.0918 7.93927 48.384 8.42309C47.6761 8.90698 47.1296 9.5867 46.8131 10.3766C46.4965 11.1664 46.4243 12.0311 46.6052 12.8614C46.7867 13.6917 47.2132 14.4505 47.8306 15.0422C48.4487 15.6338 49.2306 16.0317 50.0773 16.1857C50.924 16.3397 51.7983 16.2429 52.5897 15.9075C53.3805 15.5722 54.0539 15.0132 54.523 14.3012C54.9929 13.5892 55.2378 12.756 55.2278 11.9067C55.2196 11.3402 55.099 10.7807 54.8716 10.2604C54.6436 9.7401 54.3145 9.26915 53.9025 8.87449C53.4904 8.47977 53.003 8.16915 52.4691 7.96039C51.9353 7.75162 51.3643 7.64877 50.7902 7.65777ZM50.7902 14.3966C50.4718 14.3925 50.1577 14.325 49.8663 14.198C49.5755 14.0711 49.3129 13.8874 49.0956 13.6579C48.8783 13.4286 48.7106 13.1582 48.6019 12.8631C48.4933 12.5679 48.4461 12.2542 48.4637 11.9407C48.4436 11.6315 48.4882 11.3216 48.5937 11.03C48.6999 10.7384 48.8657 10.4713 49.0805 10.2452C49.2953 10.0191 49.5548 9.83876 49.8424 9.71529C50.1307 9.59182 50.4416 9.52783 50.7557 9.52733C51.0748 9.52927 51.3907 9.59482 51.6834 9.72016C51.9767 9.84545 52.2411 10.0279 52.461 10.2565C52.6802 10.4851 52.851 10.7552 52.9622 11.0504C53.0734 11.3457 53.123 11.6601 53.1079 11.9747C53.128 12.2864 53.0828 12.5989 52.9754 12.8927C52.868 13.1865 52.7003 13.4553 52.483 13.6824C52.265 13.9096 52.0031 14.0902 51.7117 14.2131C51.4202 14.336 51.1068 14.3984 50.7902 14.3966Z" fill="black"/>
<path d="M60.5619 7.82817H58.5199V5.77171C58.5199 5.73709 58.5067 5.70373 58.4822 5.67842C58.4584 5.65318 58.4257 5.63793 58.3905 5.63574H56.5376C56.5012 5.63574 56.466 5.65005 56.4403 5.67555C56.4145 5.70104 56.4001 5.73566 56.4001 5.77171V7.82817H55.4868C55.4698 7.82817 55.4529 7.83148 55.4372 7.83792C55.4215 7.84429 55.407 7.85373 55.3951 7.86554C55.3832 7.87735 55.3737 7.8914 55.3675 7.9069C55.3606 7.92234 55.3574 7.93896 55.3574 7.95564V9.52777C55.3574 9.56239 55.3706 9.59576 55.3945 9.62106C55.419 9.64631 55.4516 9.66155 55.4868 9.66374H56.3486V13.7257C56.3486 15.3659 57.2097 16.1987 58.8126 16.1987C59.4156 16.2155 60.0117 16.0684 60.5361 15.7738C60.5569 15.7639 60.5751 15.7482 60.587 15.7286C60.5996 15.709 60.6052 15.6863 60.6052 15.6633V14.1676C60.6052 14.1445 60.6002 14.1216 60.5895 14.1009C60.5788 14.0802 60.5638 14.0623 60.5449 14.0487C60.5242 14.0358 60.5003 14.029 60.4758 14.029C60.4513 14.029 60.4275 14.0358 60.4067 14.0487C60.0701 14.2167 59.6982 14.3041 59.3208 14.3036C58.7266 14.3036 58.4596 14.0402 58.4596 13.4538V9.66374H60.5016C60.538 9.66374 60.5732 9.64943 60.5989 9.62394C60.6247 9.59844 60.6391 9.56383 60.6391 9.52777V7.95564C60.6404 7.92927 60.6335 7.90321 60.6197 7.88053C60.6059 7.85791 60.5858 7.83973 60.5619 7.82817Z" fill="black"/>
<path d="M67.6702 7.83702V7.58208C67.6702 6.83431 67.9547 6.50289 68.601 6.50289C68.9603 6.50695 69.3165 6.57313 69.6525 6.69835C69.6713 6.70678 69.6921 6.71116 69.7128 6.71116C69.7335 6.71116 69.7542 6.70678 69.7731 6.69835C69.7894 6.68516 69.8032 6.66829 69.812 6.64911C69.8208 6.62992 69.8252 6.60899 69.8246 6.58787V5.03273C69.8258 5.00293 69.8177 4.9735 69.8007 4.94894C69.7831 4.92438 69.7586 4.90608 69.7297 4.89677C69.2266 4.76623 68.7072 4.709 68.1877 4.72681C66.4642 4.72681 65.6025 5.67858 65.6025 7.47167V7.86251H64.7407C64.7068 7.86251 64.6735 7.87595 64.6496 7.89988C64.6251 7.92381 64.6113 7.95618 64.6113 7.98998V9.57061C64.6113 9.60523 64.6245 9.6386 64.649 9.6639C64.6729 9.68915 64.7055 9.7044 64.7407 9.70658H65.6025V15.9781C65.6025 16.0119 65.6163 16.0443 65.6402 16.0682C65.6647 16.0921 65.6973 16.1055 65.7319 16.1055H67.5496C67.5848 16.1056 67.6187 16.0924 67.6444 16.0687C67.6702 16.045 67.6853 16.0126 67.6878 15.9781V9.66409H69.4113L72.065 15.9271C71.7635 16.5899 71.4621 16.7174 71.0569 16.7174C70.6995 16.7078 70.3503 16.6115 70.04 16.437C70.0224 16.4286 70.0036 16.4243 69.9841 16.4243C69.9647 16.4243 69.9458 16.4286 69.9282 16.437C69.9106 16.4419 69.8949 16.4505 69.8817 16.4623C69.8679 16.4741 69.8573 16.4886 69.8503 16.5049L69.2731 17.8561C69.2606 17.8868 69.2599 17.921 69.2706 17.9523C69.2819 17.9836 69.3039 18.0098 69.3334 18.026C69.9358 18.3667 70.621 18.54 71.3151 18.5274C72.6768 18.5274 73.4349 17.8985 74.107 16.2075L77.321 8.01548C77.3317 7.99586 77.3373 7.97399 77.3373 7.95174C77.3373 7.92956 77.3317 7.90769 77.321 7.88801C77.3078 7.87151 77.2909 7.85833 77.2714 7.84952C77.2519 7.84064 77.2306 7.83639 77.2092 7.83702H75.2275C75.1999 7.83877 75.1735 7.84752 75.1509 7.86245C75.1283 7.87732 75.1101 7.89788 75.0982 7.922L73.1246 13.4881L70.9966 7.922C70.986 7.89669 70.9684 7.87501 70.9451 7.85989C70.9219 7.8447 70.8949 7.83677 70.8672 7.83702H67.6702Z" fill="black"/>
<path d="M63.551 7.82812H61.6987C61.6227 7.82812 61.5605 7.88899 61.5605 7.96409V15.9351C61.5605 16.0102 61.6227 16.0711 61.6987 16.0711H63.551C63.6276 16.0711 63.6892 16.0102 63.6892 15.9351V7.96409C63.6892 7.88899 63.6276 7.82812 63.551 7.82812Z" fill="black"/>
<path d="M62.6296 4.19143C62.3651 4.18975 62.1056 4.26562 61.8851 4.40932C61.6639 4.55307 61.4918 4.75826 61.3894 4.99883C61.287 5.23946 61.2593 5.5046 61.3096 5.76073C61.3605 6.01686 61.4868 6.25243 61.6734 6.43756C61.86 6.62263 62.0981 6.74895 62.3569 6.80051C62.6164 6.85201 62.8853 6.82645 63.1303 6.72701C63.3747 6.62751 63.5839 6.45863 63.7309 6.24181C63.8786 6.02499 63.9571 5.76992 63.9571 5.50897C63.9577 5.33634 63.9244 5.16521 63.8585 5.00539C63.7919 4.84558 63.6945 4.70032 63.5714 4.57782C63.4476 4.45538 63.3012 4.35819 63.1397 4.29187C62.9776 4.22556 62.8049 4.19143 62.6296 4.19143Z" fill="black"/>
<path d="M78.8637 10.3871C78.6922 10.3882 78.5225 10.3557 78.3642 10.2917C78.2059 10.2276 78.062 10.1331 77.9407 10.0137C77.8195 9.89424 77.724 9.75229 77.6587 9.5961C77.5939 9.43985 77.5613 9.27241 77.5625 9.10359C77.5625 8.76089 77.7001 8.43226 77.9458 8.18994C78.1914 7.94768 78.525 7.81155 78.8725 7.81155C79.0434 7.81043 79.213 7.84286 79.3719 7.90693C79.5303 7.97106 79.6741 8.06556 79.7954 8.18494C79.916 8.30438 80.0122 8.44632 80.0769 8.60257C80.1422 8.75877 80.1749 8.92621 80.1736 9.09509C80.1736 9.43772 80.036 9.76636 79.7904 10.0087C79.5441 10.2509 79.2111 10.3871 78.8637 10.3871ZM78.8637 7.93905C78.6293 7.93737 78.4 8.00443 78.2046 8.13175C78.0092 8.25906 77.8566 8.44082 77.7661 8.65395C77.6756 8.86708 77.6511 9.10196 77.6964 9.32866C77.7416 9.55529 77.8547 9.76361 78.0199 9.92699C78.1858 10.0904 78.3969 10.2014 78.6268 10.2461C78.8568 10.2907 79.0949 10.2669 79.311 10.1777C79.5271 10.0886 79.7112 9.93799 79.8406 9.74523C79.9694 9.55241 80.0373 9.3261 80.036 9.09509C80.0373 8.94365 80.0078 8.79352 79.95 8.65333C79.8915 8.51313 79.8061 8.38563 79.698 8.27813C79.59 8.17069 79.4612 8.08537 79.3198 8.02718C79.1778 7.96899 79.0258 7.93905 78.8725 7.93905H78.8637ZM79.1565 9.23103L79.519 9.74105H79.2086L78.8806 9.27359H78.5967V9.74105H78.329V8.38957H78.9416C79.2601 8.38957 79.4756 8.55107 79.4756 8.81458C79.4775 8.90796 79.448 8.9994 79.3921 9.07465C79.3361 9.14997 79.2563 9.2049 79.1652 9.23103H79.1565ZM78.9328 8.61908H78.5967V9.04409H78.9328C79.1049 9.04409 79.2086 8.96759 79.2086 8.83158C79.2086 8.69558 79.1137 8.61908 78.9416 8.61908H78.9328Z" fill="black"/>
</svg>
